<svg width="701" height="428" viewBox="0 0 701 428" fill="none" xmlns="http://www.w3.org/2000/svg">
<g clip-path="url(#clip0_1056_2103)">
<path d="M0 373.216H136.914V428H6.84611C3.06511 428 0 424.935 0 421.154V373.216Z" fill="black" fill-opacity="0.1"/>
<path fill-rule="evenodd" clip-rule="evenodd" d="M26.0106 413.958C33.5726 413.958 39.7028 407.828 39.7028 400.266C39.7028 392.704 33.5726 386.574 26.0106 386.574C18.4486 386.574 12.3184 392.704 12.3184 400.266C12.3184 407.828 18.4486 413.958 26.0106 413.958Z" fill="white" fill-opacity="0.1" stroke="white" stroke-opacity="0.3" stroke-width="0.821532"/>
<path d="M26.0063 393.42L19.1602 400.266L26.0063 407.112L32.8524 400.266L26.0063 393.42Z" fill="#00CFFD" stroke="black" stroke-width="0.821532" stroke-miterlimit="10" stroke-linecap="round" stroke-linejoin="round"/>
<path fill-rule="evenodd" clip-rule="evenodd" d="M24.2931 400.668C24.1326 400.508 23.8726 400.508 23.7121 400.668C23.5517 400.828 23.5517 401.088 23.7121 401.249L25.7868 403.324C25.8639 403.401 25.9684 403.444 26.0773 403.444C26.1862 403.444 26.2907 403.401 26.3678 403.324L28.4425 401.249C28.6029 401.088 28.6029 400.828 28.4425 400.668C28.282 400.508 28.022 400.508 27.8615 400.668L26.49 402.039V397.154C26.49 396.927 26.3061 396.743 26.0792 396.743C25.8523 396.743 25.6684 396.927 25.6684 397.154V402.043L24.2931 400.668Z" fill="black"/>
<path d="M89.7724 389.709H48.7374C47.5287 389.709 46.5488 390.689 46.5488 391.897V391.898C46.5488 393.106 47.5287 394.086 48.7374 394.086H89.7724C90.9811 394.086 91.9609 393.106 91.9609 391.898V391.897C91.9609 390.689 90.9811 389.709 89.7724 389.709Z" fill="white" fill-opacity="0.6"/>
<path d="M77.1883 399.649H47.6431C47.0388 399.649 46.5488 400.139 46.5488 400.743C46.5488 401.348 47.0388 401.837 47.6431 401.837H77.1883C77.7926 401.837 78.2825 401.348 78.2825 400.743C78.2825 400.139 77.7926 399.649 77.1883 399.649Z" fill="white" fill-opacity="0.3"/>
<path d="M120.144 407.4H48.2604C47.3151 407.4 46.5488 408.166 46.5488 409.111C46.5488 410.057 47.3151 410.823 48.2604 410.823H120.144C121.09 410.823 121.856 410.057 121.856 409.111C121.856 408.166 121.09 407.4 120.144 407.4Z" fill="black" fill-opacity="0.2"/>
<path d="M95.4994 408.085H48.2613C47.6941 408.085 47.2344 408.545 47.2344 409.112C47.2344 409.679 47.6941 410.139 48.2613 410.139H95.4994C96.0665 410.139 96.5263 409.679 96.5263 409.112C96.5263 408.545 96.0665 408.085 95.4994 408.085Z" fill="#00CFFD" stroke="black" stroke-opacity="0.05" stroke-width="0.247119"/>
<path d="M126.649 39.9932H10.2648C8.37435 39.9932 6.8418 41.5257 6.8418 43.4162V55.7392C6.8418 57.6297 8.37435 59.1623 10.2648 59.1623H126.649C128.539 59.1623 130.072 57.6297 130.072 55.7392V43.4162C130.072 41.5257 128.539 39.9932 126.649 39.9932Z" fill="black" fill-opacity="0.2"/>
<path d="M16.7384 52.553C17.4294 52.553 18.0769 52.3444 18.6158 51.9881L20.5192 53.8958C20.6452 54.0175 20.806 54.0784 20.9798 54.0784C21.3405 54.0784 21.6056 53.7959 21.6056 53.4395C21.6056 53.2744 21.5491 53.1136 21.4274 52.9919L19.537 51.0929C19.9282 50.541 20.1585 49.8631 20.1585 49.133C20.1585 47.2513 18.6201 45.7129 16.7384 45.7129C14.8611 45.7129 13.3184 47.2513 13.3184 49.133C13.3184 51.0147 14.8568 52.553 16.7384 52.553ZM16.7384 51.6404C15.3609 51.6404 14.231 50.5106 14.231 49.133C14.231 47.7598 15.3609 46.6255 16.7384 46.6255C18.116 46.6255 19.2459 47.7598 19.2459 49.133C19.2459 50.5106 18.116 51.6404 16.7384 51.6404Z" fill="white"/>
<path d="M37.4812 67.377H7.93607C7.33172 67.377 6.8418 67.8669 6.8418 68.4712C6.8418 69.0756 7.33172 69.5655 7.93607 69.5655H37.4812C38.0856 69.5655 38.5755 69.0756 38.5755 68.4712C38.5755 67.8669 38.0856 67.377 37.4812 67.377Z" fill="white" fill-opacity="0.3"/>
<path d="M126.649 75.043H10.2648C8.37435 75.043 6.8418 76.5755 6.8418 78.466V90.789C6.8418 92.6795 8.37435 94.2121 10.2648 94.2121H126.649C128.539 94.2121 130.072 92.6795 130.072 90.789V78.466C130.072 76.5755 128.539 75.043 126.649 75.043Z" fill="white" fill-opacity="0.1"/>
<path d="M21.9047 90.7878H15.7432C15.3667 90.7878 15.0586 90.4797 15.0586 90.1032V79.1494C15.0586 78.7729 15.3667 78.4648 15.7432 78.4648H21.9047V90.7878Z" stroke="white" stroke-opacity="0.6" stroke-width="0.821532" stroke-miterlimit="10" stroke-linecap="round" stroke-linejoin="round"/>
<path d="M28.0658 90.7888H21.9043V78.4658H28.0658C28.4423 78.4658 28.7504 78.7739 28.7504 79.1504V90.1042C28.7504 90.4807 28.4423 90.7888 28.0658 90.7888Z" stroke="white" stroke-opacity="0.6" stroke-width="0.821532" stroke-miterlimit="10" stroke-linecap="round" stroke-linejoin="round"/>
<path d="M16.4277 84.627H20.5354" stroke="white" stroke-opacity="0.6" stroke-width="0.821532" stroke-miterlimit="10"/>
<path d="M16.4277 81.8896H20.5354" stroke="white" stroke-opacity="0.6" stroke-width="0.821532" stroke-miterlimit="10"/>
<path d="M16.4277 87.3652H20.5354" stroke="white" stroke-opacity="0.6" stroke-width="0.821532" stroke-miterlimit="10"/>
<path d="M23.2734 84.627H27.3811" stroke="white" stroke-opacity="0.6" stroke-width="0.821532" stroke-miterlimit="10"/>
<path d="M23.2734 81.8896H27.3811" stroke="white" stroke-opacity="0.6" stroke-width="0.821532" stroke-miterlimit="10"/>
<path d="M67.6043 83.5322H38.0591C37.4548 83.5322 36.9648 84.0221 36.9648 84.6265C36.9648 85.2308 37.4548 85.7207 38.0591 85.7207H67.6043C68.2086 85.7207 68.6985 85.2308 68.6985 84.6265C68.6985 84.0221 68.2086 83.5322 67.6043 83.5322Z" fill="white" fill-opacity="0.3"/>
<path d="M21.2221 102.425C19.6201 102.425 17.6005 103.602 17.6347 106.642L15.088 109.942C15.0127 110.037 15.1017 110.161 15.2386 110.161L16.9364 111.003C17.0254 111.633 17.354 113.467 17.532 114.385C17.5937 114.672 20.4006 114.453 20.4006 114.453L21.2221 116.117" stroke="white" stroke-opacity="0.6" stroke-width="0.821532" stroke-miterlimit="10" stroke-linecap="round" stroke-linejoin="round"/>
<path fill-rule="evenodd" clip-rule="evenodd" d="M24.5402 102.563C24.6166 102.35 24.5054 102.114 24.2918 102.038C24.0782 101.962 23.8431 102.073 23.7667 102.286L23.0684 104.238C22.9919 104.451 23.1031 104.686 23.3167 104.763C23.5303 104.839 23.7654 104.728 23.8419 104.514L24.5402 102.563ZM28.7834 104.63C28.965 104.494 29.002 104.237 28.8661 104.055C28.7301 103.874 28.4727 103.837 28.2911 103.973L25.9497 105.725C25.7681 105.861 25.7311 106.119 25.867 106.3C26.003 106.482 26.2604 106.519 26.442 106.383L28.7834 104.63ZM26.104 109.151C26.1206 108.925 26.3175 108.755 26.5437 108.772L28.7824 108.936C29.0087 108.953 29.1786 109.149 29.162 109.376C29.1454 109.602 28.9485 109.772 28.7223 109.755L26.4836 109.591C26.2574 109.574 26.0874 109.378 26.104 109.151ZM21.7153 112.907C21.4885 112.907 21.3046 113.09 21.3046 113.317C21.3046 113.544 21.4885 113.728 21.7153 113.728H23.5159C23.7427 113.728 23.9266 113.544 23.9266 113.317C23.9266 113.09 23.7427 112.907 23.5159 112.907H21.7153ZM21.3046 111.551C21.3046 111.324 21.4885 111.14 21.7153 111.14H21.8237C20.9205 110.382 19.6839 108.718 20.6944 107.388C21.6802 106.094 23.5492 106.094 24.5351 107.388C25.5445 108.717 24.3163 110.383 23.411 111.14H23.5159C23.7427 111.14 23.9266 111.324 23.9266 111.551C23.9266 111.777 23.7427 111.961 23.5159 111.961H21.7153C21.4885 111.961 21.3046 111.777 21.3046 111.551ZM23.0314 111.14V109.389C23.2207 109.252 23.3439 109.029 23.3439 108.778C23.3439 108.362 23.0067 108.025 22.5908 108.025C22.1749 108.025 21.8378 108.362 21.8378 108.778C21.8378 109.055 21.9872 109.297 22.2099 109.428V111.14H23.0314ZM22.5761 108.711C22.582 108.711 22.5879 108.71 22.5938 108.71H22.5908C22.5858 108.71 22.5809 108.71 22.5761 108.711Z" fill="white" fill-opacity="0.6"/>
<path d="M81.4687 107.882H38.3556C37.5875 107.882 36.9648 108.504 36.9648 109.273C36.9648 110.041 37.5875 110.663 38.3556 110.663H81.4687C82.2368 110.663 82.8594 110.041 82.8594 109.273C82.8594 108.504 82.2368 107.882 81.4687 107.882Z" fill="white" fill-opacity="0.3"/>
<path d="M21.9066 127.074L15.0605 133.92L21.9066 140.766L28.7527 133.92L21.9066 127.074Z" stroke="white" stroke-opacity="0.6" stroke-width="0.821532" stroke-miterlimit="10" stroke-linecap="round" stroke-linejoin="round"/>
<path fill-rule="evenodd" clip-rule="evenodd" d="M20.1934 134.324C20.033 134.163 19.7729 134.163 19.6125 134.324C19.4521 134.484 19.4521 134.744 19.6125 134.905L21.6872 136.979C21.7643 137.056 21.8687 137.1 21.9777 137.1C22.0866 137.1 22.1911 137.056 22.2681 136.979L24.3428 134.905C24.5033 134.744 24.5033 134.484 24.3428 134.324C24.1824 134.163 23.9223 134.163 23.7619 134.324L22.3904 135.695V130.81C22.3904 130.583 22.2065 130.399 21.9796 130.399C21.7527 130.399 21.5688 130.583 21.5688 130.81V135.699L20.1934 134.324Z" fill="white" fill-opacity="0.6"/>
<path d="M81.4687 132.528H38.3556C37.5875 132.528 36.9648 133.15 36.9648 133.919C36.9648 134.687 37.5875 135.309 38.3556 135.309H81.4687C82.2368 135.309 82.8594 134.687 82.8594 133.919C82.8594 133.15 82.2368 132.528 81.4687 132.528Z" fill="white" fill-opacity="0.3"/>
<path d="M29.7773 183.211C29.7773 187.559 26.2523 191.084 21.9042 191.084C17.5561 191.084 14.0312 187.559 14.0312 183.211C14.0312 178.863 17.5561 175.338 21.9042 175.338C26.2523 175.338 29.7773 178.863 29.7773 183.211Z" stroke="white" stroke-opacity="0.2" stroke-width="0.68461"/>
<path d="M67.6043 182.117H38.0591C37.4548 182.117 36.9648 182.607 36.9648 183.211C36.9648 183.815 37.4548 184.305 38.0591 184.305H67.6043C68.2086 184.305 68.6985 183.815 68.6985 183.211C68.6985 182.607 68.2086 182.117 67.6043 182.117Z" fill="white" fill-opacity="0.3"/>
<path d="M29.7773 206.488C29.7773 210.836 26.2523 214.361 21.9042 214.361C17.5561 214.361 14.0312 210.836 14.0312 206.488C14.0312 202.14 17.5561 198.615 21.9042 198.615C26.2523 198.615 29.7773 202.14 29.7773 206.488Z" stroke="white" stroke-opacity="0.2" stroke-width="0.68461"/>
<path d="M73.1242 205.097H38.3556C37.5875 205.097 36.9648 205.719 36.9648 206.487C36.9648 207.256 37.5875 207.878 38.3556 207.878H73.1242C73.8923 207.878 74.5149 207.256 74.5149 206.487C74.5149 205.719 73.8923 205.097 73.1242 205.097Z" fill="white" fill-opacity="0.3"/>
<path d="M29.7773 229.764C29.7773 234.113 26.2523 237.637 21.9042 237.637C17.5561 237.637 14.0312 234.113 14.0312 229.764C14.0312 225.416 17.5561 221.891 21.9042 221.891C26.2523 221.891 29.7773 225.416 29.7773 229.764Z" stroke="white" stroke-opacity="0.2" stroke-width="0.68461"/>
<path d="M77.2965 228.374H38.3556C37.5875 228.374 36.9648 228.996 36.9648 229.764C36.9648 230.532 37.5875 231.155 38.3556 231.155H77.2965C78.0646 231.155 78.6872 230.532 78.6872 229.764C78.6872 228.996 78.0646 228.374 77.2965 228.374Z" fill="white" fill-opacity="0.3"/>
<path d="M29.7773 283.164C29.7773 287.512 26.2523 291.037 21.9042 291.037C17.5561 291.037 14.0312 287.512 14.0312 283.164C14.0312 278.816 17.5561 275.291 21.9042 275.291C26.2523 275.291 29.7773 278.816 29.7773 283.164Z" stroke="white" stroke-opacity="0.2" stroke-width="0.68461"/>
<path d="M59.2168 281.772H38.3556C37.5875 281.772 36.9648 282.395 36.9648 283.163C36.9648 283.931 37.5875 284.554 38.3556 284.554H59.2168C59.9849 284.554 60.6075 283.931 60.6075 283.163C60.6075 282.395 59.9849 281.772 59.2168 281.772Z" fill="white" fill-opacity="0.3"/>
<path d="M29.7773 306.441C29.7773 310.789 26.2523 314.314 21.9042 314.314C17.5561 314.314 14.0312 310.789 14.0312 306.441C14.0312 302.093 17.5561 298.568 21.9042 298.568C26.2523 298.568 29.7773 302.093 29.7773 306.441Z" stroke="white" stroke-opacity="0.2" stroke-width="0.68461"/>
<path d="M67.6043 305.347H38.0591C37.4548 305.347 36.9648 305.837 36.9648 306.441C36.9648 307.045 37.4548 307.535 38.0591 307.535H67.6043C68.2086 307.535 68.6985 307.045 68.6985 306.441C68.6985 305.837 68.2086 305.347 67.6043 305.347Z" fill="white" fill-opacity="0.3"/>
<path d="M29.7773 329.718C29.7773 334.066 26.2523 337.591 21.9042 337.591C17.5561 337.591 14.0312 334.066 14.0312 329.718C14.0312 325.369 17.5561 321.845 21.9042 321.845C26.2523 321.845 29.7773 325.369 29.7773 329.718Z" stroke="white" stroke-opacity="0.2" stroke-width="0.68461"/>
<path d="M87.0317 328.327H38.3556C37.5875 328.327 36.9648 328.949 36.9648 329.717C36.9648 330.485 37.5875 331.108 38.3556 331.108H87.0317C87.7998 331.108 88.4224 330.485 88.4224 329.717C88.4224 328.949 87.7998 328.327 87.0317 328.327Z" fill="white" fill-opacity="0.3"/>
<path d="M21.9067 17.8049C21.9067 15.5363 20.0677 13.6973 17.7991 13.6973C15.5305 13.6973 13.6914 15.5363 13.6914 17.8049C13.6914 20.0735 15.5305 21.9126 17.7991 21.9126C20.0677 21.9126 21.9067 20.0735 21.9067 17.8049Z" fill="#EB6A5D"/>
<path d="M36.2837 17.8049C36.2837 15.5363 34.4446 13.6973 32.176 13.6973C29.9074 13.6973 28.0684 15.5363 28.0684 17.8049C28.0684 20.0735 29.9074 21.9126 32.176 21.9126C34.4446 21.9126 36.2837 20.0735 36.2837 17.8049Z" fill="#F3BE4F"/>
<path d="M50.6606 17.8049C50.6606 15.5363 48.8216 13.6973 46.553 13.6973C44.2844 13.6973 42.4453 15.5363 42.4453 17.8049C42.4453 20.0735 44.2844 21.9126 46.553 21.9126C48.8216 21.9126 50.6606 20.0735 50.6606 17.8049Z" fill="#64C354"/>
<path d="M136.912 0H694.153C697.934 0 700.999 3.0651 700.999 6.8461V421.154C700.999 424.935 697.934 428 694.153 428H136.912V0Z" fill="#1A164A" fill-opacity="0.63"/>
<mask id="mask0_1056_2103" style="mask-type:alpha" maskUnits="userSpaceOnUse" x="140" y="-3" width="565" height="428">
<path d="M140 -3H697.241C701.022 -3 704.087 0.0651 704.087 3.8461V418.154C704.087 421.935 701.022 425 697.241 425H140V-3Z" fill="#1A164A"/>
</mask>
<g mask="url(#mask0_1056_2103)">
<path fill-rule="evenodd" clip-rule="evenodd" d="M650.501 156.592C676.725 92.4358 720.087 -17.9166 607.934 -82.1143C495.781 -146.312 443.607 -105.205 394.597 -86.2721C345.588 -67.3396 224.353 -55.012 242.588 21.5162C260.823 98.0444 264.873 231.876 351.987 231.878C439.101 231.881 427.419 195.609 483.367 189.188C539.315 182.768 624.277 220.748 650.501 156.592Z" fill="url(#paint0_linear_1056_2103)"/>
<path fill-rule="evenodd" clip-rule="evenodd" d="M650.501 156.592C676.725 92.4358 720.087 -17.9166 607.934 -82.1143C495.781 -146.312 443.607 -105.205 394.597 -86.2721C345.588 -67.3396 224.353 -55.012 242.588 21.5162C260.823 98.0444 264.873 231.876 351.987 231.878C439.101 231.881 427.419 195.609 483.367 189.188C539.315 182.768 624.277 220.748 650.501 156.592Z" fill="#14BEFD"/>
<g filter="url(#filter0_d_1056_2103)">
<path fill-rule="evenodd" clip-rule="evenodd" d="M261.336 -54.8173C236.734 17.3016 196.333 141.237 323.599 204.382C450.865 267.528 505.448 219.014 558.001 195.042C610.555 171.069 742.804 149.639 717.808 66.8396C692.811 -15.9599 679.649 -162.573 584.044 -156.898C488.438 -151.223 503.622 -112.177 442.638 -101.484C381.654 -90.7917 285.937 -126.937 261.336 -54.8173Z" fill="url(#paint1_linear_1056_2103)"/>
</g>
<g opacity="0.5" filter="url(#filter1_d_1056_2103)">
<path opacity="0.5" fill-rule="evenodd" clip-rule="evenodd" d="M270.7 -66.4956C246.611 4.12164 207.05 125.476 331.667 187.307C456.283 249.139 509.729 201.634 561.188 178.161C612.648 154.688 742.143 133.703 717.667 52.6281C693.191 -28.4473 680.303 -172.007 586.688 -166.451C493.073 -160.894 507.941 -122.661 448.227 -112.191C388.513 -101.721 294.789 -137.113 270.7 -66.4956Z" stroke="url(#paint2_linear_1056_2103)" stroke-width="6.78117" stroke-linecap="round" stroke-dasharray="67.81 33.91"/>
</g>
<g opacity="0.2" filter="url(#filter2_d_1056_2103)">
<path opacity="0.2" fill-rule="evenodd" clip-rule="evenodd" d="M299.991 -54.1834C278.896 8.3815 244.294 115.913 356.691 171.809C469.088 227.706 516.727 185.903 562.766 165.439C608.805 144.976 724.951 127.321 702.347 55.0908C679.743 -17.1389 667.07 -144.802 583.032 -140.581C498.994 -136.361 512.64 -102.273 459.088 -93.4279C405.536 -84.5818 321.086 -116.748 299.991 -54.1834Z" stroke="url(#paint3_linear_1056_2103)" stroke-width="3.39059" stroke-linecap="round" stroke-dasharray="33.91 16.95"/>
</g>
<g filter="url(#filter3_d_1056_2103)">
<path fill-rule="evenodd" clip-rule="evenodd" d="M266.531 -92.1865C241.641 -19.2233 200.767 106.163 329.523 170.048C458.279 233.933 513.501 184.851 566.67 160.598C619.839 136.345 753.636 114.664 728.347 30.8946C703.058 -52.8742 689.742 -201.203 593.017 -195.462C496.292 -189.721 511.653 -150.217 449.956 -139.4C388.258 -128.582 291.42 -165.15 266.531 -92.1865Z" stroke="url(#paint4_linear_1056_2103)" stroke-width="10.1718" stroke-linecap="round" stroke-dasharray="67.81 33.91"/>
</g>
<path fill-rule="evenodd" clip-rule="evenodd" d="M572.983 26.7042C578.276 26.7042 582.567 22.4131 582.567 17.1197C582.567 11.8263 578.276 7.53516 572.983 7.53516C567.689 7.53516 563.398 11.8263 563.398 17.1197C563.398 22.4131 567.689 26.7042 572.983 26.7042Z" fill="white" fill-opacity="0.1" stroke="white" stroke-opacity="0.3" stroke-width="0.821532"/>
<path d="M579.831 17.1205C579.831 17.8188 579.728 18.4966 579.53 19.1333C578.989 17.9489 577.798 17.1205 576.408 17.1205C574.518 17.1205 572.985 18.654 572.985 20.5436C572.985 21.9333 573.813 23.1245 574.998 23.6654C574.361 23.8639 573.683 23.9666 572.985 23.9666C569.206 23.9666 566.139 20.8996 566.139 17.1205C566.139 13.3415 569.206 10.2744 572.985 10.2744C576.764 10.2744 579.831 13.3415 579.831 17.1205Z" fill="#00CFFD" stroke="black" stroke-width="0.821532" stroke-miterlimit="10" stroke-linecap="round" stroke-linejoin="round"/>
<path d="M574.991 23.6571C573.807 23.1162 572.985 21.925 572.985 20.5421C572.985 19.789 573.225 19.0976 573.642 18.5293C573.423 18.502 573.204 18.4883 572.985 18.4883C570.74 18.4883 568.816 19.837 567.967 21.7676C569.22 23.1162 571 23.9651 572.985 23.9651C573.684 23.9651 574.354 23.8625 574.991 23.6571Z" fill="white" stroke="black" stroke-width="0.821532" stroke-miterlimit="10" stroke-linecap="round"/>
<path d="M573.751 18.38H573.758C574.135 17.9145 574.641 17.5448 575.216 17.3325C575.538 16.8807 575.723 16.3399 575.723 15.7511C575.723 14.2381 574.497 13.0127 572.984 13.0127C571.471 13.0127 570.246 14.2381 570.246 15.7511C570.246 17.2641 571.471 18.4895 572.984 18.4895C573.251 18.4895 573.512 18.4485 573.758 18.38" fill="white"/>
<path d="M573.751 18.38H573.758C574.135 17.9145 574.641 17.5448 575.216 17.3325C575.538 16.8807 575.723 16.3399 575.723 15.7511C575.723 14.2381 574.497 13.0127 572.984 13.0127C571.471 13.0127 570.246 14.2381 570.246 15.7511C570.246 17.2641 571.471 18.4895 572.984 18.4895C573.251 18.4895 573.512 18.4485 573.758 18.38" stroke="black" stroke-width="0.821532" stroke-miterlimit="10" stroke-linecap="round" stroke-linejoin="round"/>
<path d="M576.407 23.9672C578.298 23.9672 579.83 22.4346 579.83 20.5441C579.83 18.6536 578.298 17.1211 576.407 17.1211C574.517 17.1211 572.984 18.6536 572.984 20.5441C572.984 22.4346 574.517 23.9672 576.407 23.9672Z" fill="black" stroke="black" stroke-width="0.821532" stroke-miterlimit="10" stroke-linecap="round" stroke-linejoin="round"/>
<path d="M574.76 20.0979L575.993 21.3302L578.047 19.2764" stroke="#00CFFD" stroke-width="0.821532" stroke-miterlimit="10"/>
<path d="M650.002 19.8954C650.154 19.891 650.294 19.8345 650.407 19.7128L653.709 16.3319C653.805 16.2363 653.857 16.1146 653.857 15.9712C653.857 15.6844 653.631 15.4541 653.344 15.4541C653.205 15.4541 653.07 15.5106 652.97 15.6105L650.007 18.6568L647.034 15.6105C646.934 15.5149 646.804 15.4541 646.661 15.4541C646.374 15.4541 646.148 15.6844 646.148 15.9712C646.148 16.1146 646.2 16.2363 646.296 16.3319L649.603 19.7128C649.72 19.8345 649.85 19.8954 650.002 19.8954Z" fill="white"/>
<path d="M292.949 62.1211H159.642C158.433 62.1211 157.453 63.1009 157.453 64.3096V68.277C157.453 69.4857 158.433 70.4656 159.642 70.4656H292.949C294.157 70.4656 295.137 69.4857 295.137 68.277V64.3096C295.137 63.1009 294.157 62.1211 292.949 62.1211Z" fill="white" fill-opacity="0.6"/>
<path d="M219.239 81.5918H159.642C158.433 81.5918 157.453 82.5716 157.453 83.7803V87.7477C157.453 88.9564 158.433 89.9363 159.642 89.9363H219.239C220.448 89.9363 221.427 88.9564 221.427 87.7477V83.7803C221.427 82.5716 220.448 81.5918 219.239 81.5918Z" fill="white" fill-opacity="0.6"/>
<path d="M285.401 101.062H158.844C158.076 101.062 157.453 101.685 157.453 102.453C157.453 103.221 158.076 103.844 158.844 103.844H285.401C286.169 103.844 286.792 103.221 286.792 102.453C286.792 101.685 286.169 101.062 285.401 101.062Z" fill="white" fill-opacity="0.3"/>
<path d="M252.024 114.97H158.844C158.076 114.97 157.453 115.593 157.453 116.361C157.453 117.129 158.076 117.752 158.844 117.752H252.024C252.792 117.752 253.415 117.129 253.415 116.361C253.415 115.593 252.792 114.97 252.024 114.97Z" fill="white" fill-opacity="0.3"/>
<path d="M268.712 128.877H158.844C158.076 128.877 157.453 129.5 157.453 130.268C157.453 131.036 158.076 131.658 158.844 131.658H268.712C269.48 131.658 270.103 131.036 270.103 130.268C270.103 129.5 269.48 128.877 268.712 128.877Z" fill="white" fill-opacity="0.3"/>
<path d="M606.628 48.6211H565.593C564.384 48.6211 563.404 49.6009 563.404 50.8096C563.404 52.0183 564.384 52.9982 565.593 52.9982H606.628C607.836 52.9982 608.816 52.0183 608.816 50.8096C608.816 49.6009 607.836 48.6211 606.628 48.6211Z" fill="white" fill-opacity="0.6"/>
<path d="M657.975 58.5605H564.795C564.027 58.5605 563.404 59.1832 563.404 59.9513C563.404 60.7194 564.027 61.342 564.795 61.342H657.975C658.743 61.342 659.366 60.7194 659.366 59.9513C659.366 59.1832 658.743 58.5605 657.975 58.5605Z" fill="white" fill-opacity="0.3"/>
<path d="M680.468 66.9053H570.246C566.465 66.9053 563.4 69.9704 563.4 73.7514V109.351C563.4 113.132 566.465 116.197 570.246 116.197H680.468C684.249 116.197 687.314 113.132 687.314 109.351V73.7514C687.314 69.9704 684.249 66.9053 680.468 66.9053Z" fill="#5B0000" fill-opacity="0.22"/>
<path fill-rule="evenodd" clip-rule="evenodd" d="M585.309 105.244C592.871 105.244 599.001 99.1136 599.001 91.5516C599.001 83.9896 592.871 77.8594 585.309 77.8594C577.747 77.8594 571.617 83.9896 571.617 91.5516C571.617 99.1136 577.747 105.244 585.309 105.244Z" fill="white" fill-opacity="0.1" stroke="white" stroke-opacity="0.3" stroke-width="0.821532"/>
<path d="M588.047 91.551L585.31 86.7588L582.57 91.551L579.146 86.7588L579.831 95.6587H590.786L591.469 86.7588L588.047 91.551Z" fill="#00CFFD" stroke="black" stroke-width="0.821532" stroke-miterlimit="10" stroke-linecap="round" stroke-linejoin="round"/>
<path fill-rule="evenodd" clip-rule="evenodd" d="M591.813 97.713H578.805C578.613 97.713 578.463 97.5624 578.463 97.3707V96.0015C578.463 95.8098 578.613 95.6592 578.805 95.6592H591.813C592.004 95.6592 592.155 95.8098 592.155 96.0015V97.3707C592.155 97.5624 592.004 97.713 591.813 97.713Z" fill="white" stroke="black" stroke-width="0.821532" stroke-miterlimit="10" stroke-linecap="round" stroke-linejoin="round"/>
<path d="M579.148 86.7598C579.526 86.7598 579.832 86.4533 579.832 86.0752C579.832 85.6971 579.526 85.3906 579.148 85.3906C578.77 85.3906 578.463 85.6971 578.463 86.0752C578.463 86.4533 578.77 86.7598 579.148 86.7598Z" stroke="black" stroke-width="0.821532" stroke-miterlimit="10" stroke-linecap="round" stroke-linejoin="round"/>
<path d="M591.471 86.7589C591.849 86.7589 592.156 86.4523 592.156 86.0742C592.156 85.6961 591.849 85.3896 591.471 85.3896C591.093 85.3896 590.787 85.6961 590.787 86.0742C590.787 86.4523 591.093 86.7589 591.471 86.7589Z" stroke="black" stroke-width="0.821532" stroke-miterlimit="10" stroke-linecap="round" stroke-linejoin="round"/>
<path d="M585.312 86.7589C585.69 86.7589 585.997 86.4523 585.997 86.0742C585.997 85.6961 585.69 85.3896 585.312 85.3896C584.934 85.3896 584.627 85.6961 584.627 86.0742C584.627 86.4523 584.934 86.7589 585.312 86.7589Z" stroke="black" stroke-width="0.821532" stroke-miterlimit="10" stroke-linecap="round" stroke-linejoin="round"/>
<path d="M650.35 94.6104H607.236C606.468 94.6104 605.846 95.2331 605.846 96.0012C605.846 96.7693 606.468 97.3919 607.236 97.3919H650.35C651.118 97.3919 651.74 96.7693 651.74 96.0012C651.74 95.2331 651.118 94.6104 650.35 94.6104Z" fill="white" fill-opacity="0.3"/>
<path d="M672.595 100.131H607.557C606.612 100.131 605.846 100.897 605.846 101.842C605.846 102.788 606.612 103.554 607.557 103.554H672.595C673.54 103.554 674.307 102.788 674.307 101.842C674.307 100.897 673.54 100.131 672.595 100.131Z" fill="black" fill-opacity="0.2"/>
<path d="M672.325 101H608.675C607.75 101 607 101.448 607 102C607 102.552 607.75 103 608.675 103H672.325C673.25 103 674 102.552 674 102C674 101.448 673.25 101 672.325 101Z" fill="#00CFFD" stroke="black" stroke-opacity="0.05" stroke-width="0.247119"/>
<path d="M700.999 34.2412H136.912V34.5835H700.999V34.2412Z" fill="white" fill-opacity="0.2"/>
<path d="M167.722 7.5332H147.869C146.357 7.5332 145.131 8.75925 145.131 10.2716V23.9639C145.131 25.4763 146.357 26.7023 147.869 26.7023H167.722C169.234 26.7023 170.46 25.4763 170.46 23.9639V10.2716C170.46 8.75925 169.234 7.5332 167.722 7.5332Z" fill="black" fill-opacity="0.2"/>
<path d="M154.075 21.5703H161.511C162.454 21.5703 162.945 21.0836 162.945 20.1536V14.8649C162.945 13.935 162.454 13.4482 161.511 13.4482H154.075C153.136 13.4482 152.645 13.9306 152.645 14.8649V20.1536C152.645 21.0836 153.136 21.5703 154.075 21.5703ZM154.132 20.7055C153.732 20.7055 153.51 20.4969 153.51 20.0754V14.9432C153.51 14.5216 153.732 14.313 154.132 14.313H156.113V20.7055H154.132ZM161.454 14.313C161.854 14.313 162.076 14.5216 162.076 14.9432V20.0754C162.076 20.4969 161.854 20.7055 161.454 20.7055H156.935V14.313H161.454ZM155.262 15.9035C155.418 15.9035 155.548 15.7688 155.548 15.6211C155.548 15.4733 155.418 15.343 155.262 15.343H154.371C154.214 15.343 154.084 15.4733 154.084 15.6211C154.084 15.7688 154.214 15.9035 154.371 15.9035H155.262ZM155.262 17.0725C155.418 17.0725 155.548 16.9422 155.548 16.7901C155.548 16.6423 155.418 16.5119 155.262 16.5119H154.371C154.214 16.5119 154.084 16.6423 154.084 16.7901C154.084 16.9422 154.214 17.0725 154.371 17.0725H155.262ZM155.262 18.2372C155.418 18.2372 155.548 18.1111 155.548 17.959C155.548 17.8113 155.418 17.6853 155.262 17.6853H154.371C154.214 17.6853 154.084 17.8113 154.084 17.959C154.084 18.1111 154.214 18.2372 154.371 18.2372H155.262Z" fill="white"/>
<path d="M690.049 7.5332H672.25C670.738 7.5332 669.512 8.75925 669.512 10.2716V23.9639C669.512 25.4763 670.738 26.7023 672.25 26.7023H690.049C691.561 26.7023 692.787 25.4763 692.787 23.9639V10.2716C692.787 8.75925 691.561 7.5332 690.049 7.5332Z" fill="black" fill-opacity="0.2"/>
<path d="M681.145 21.9967C683.609 21.9967 685.643 19.9629 685.643 17.5033C685.643 15.0436 683.605 13.0098 681.141 13.0098C678.681 13.0098 676.652 15.0436 676.652 17.5033C676.652 19.9629 678.686 21.9967 681.145 21.9967ZM681.145 21.1015C679.151 21.1015 677.556 19.4979 677.556 17.5033C677.556 15.5086 679.151 13.9094 681.141 13.9094C683.136 13.9094 684.739 15.5086 684.744 17.5033C684.748 19.4979 683.14 21.1015 681.145 21.1015ZM681.05 18.368C681.289 18.368 681.441 18.229 681.454 18.0508C681.454 18.0334 681.454 18.016 681.458 17.9987C681.471 17.777 681.623 17.6249 681.906 17.4424C682.336 17.1643 682.61 16.9122 682.61 16.4125C682.61 15.6868 681.958 15.2739 681.184 15.2739C680.441 15.2739 679.933 15.6129 679.798 16.017C679.772 16.0953 679.755 16.1691 679.755 16.2474C679.755 16.4559 679.92 16.5907 680.12 16.5907C680.376 16.5907 680.433 16.4603 680.567 16.3125C680.706 16.0953 680.889 15.9692 681.145 15.9692C681.489 15.9692 681.715 16.1648 681.715 16.4559C681.715 16.721 681.532 16.8644 681.163 17.1165C680.854 17.3338 680.628 17.5554 680.628 17.9465V17.9943C680.628 18.242 680.78 18.368 681.05 18.368ZM681.041 19.7022C681.319 19.7022 681.55 19.5023 681.55 19.2241C681.55 18.946 681.324 18.7461 681.041 18.7461C680.759 18.7461 680.528 18.9504 680.528 19.2241C680.528 19.4979 680.759 19.7022 681.041 19.7022Z" fill="white"/>
</g>
<path d="M590.537 19.8438C590.537 19.6445 590.506 19.4688 590.443 19.3164C590.385 19.1602 590.279 19.0195 590.127 18.8945C589.979 18.7695 589.771 18.6504 589.506 18.5371C589.244 18.4238 588.912 18.3086 588.51 18.1914C588.088 18.0664 587.707 17.9277 587.367 17.7754C587.027 17.6191 586.736 17.4414 586.494 17.2422C586.252 17.043 586.066 16.8145 585.938 16.5566C585.809 16.2988 585.744 16.0039 585.744 15.6719C585.744 15.3398 585.812 15.0332 585.949 14.752C586.086 14.4707 586.281 14.2266 586.535 14.0195C586.793 13.8086 587.1 13.6445 587.455 13.5273C587.811 13.4102 588.207 13.3516 588.645 13.3516C589.285 13.3516 589.828 13.4746 590.273 13.7207C590.723 13.9629 591.064 14.2812 591.299 14.6758C591.533 15.0664 591.65 15.4844 591.65 15.9297H590.525C590.525 15.6094 590.457 15.3262 590.32 15.0801C590.184 14.8301 589.977 14.6348 589.699 14.4941C589.422 14.3496 589.07 14.2773 588.645 14.2773C588.242 14.2773 587.91 14.3379 587.648 14.459C587.387 14.5801 587.191 14.7441 587.062 14.9512C586.938 15.1582 586.875 15.3945 586.875 15.6602C586.875 15.8398 586.912 16.0039 586.986 16.1523C587.064 16.2969 587.184 16.4316 587.344 16.5566C587.508 16.6816 587.715 16.7969 587.965 16.9023C588.219 17.0078 588.521 17.1094 588.873 17.207C589.357 17.3438 589.775 17.4961 590.127 17.6641C590.479 17.832 590.768 18.0215 590.994 18.2324C591.225 18.4395 591.395 18.6758 591.504 18.9414C591.617 19.2031 591.674 19.5 591.674 19.832C591.674 20.1797 591.604 20.4941 591.463 20.7754C591.322 21.0566 591.121 21.2969 590.859 21.4961C590.598 21.6953 590.283 21.8496 589.916 21.959C589.553 22.0645 589.146 22.1172 588.697 22.1172C588.303 22.1172 587.914 22.0625 587.531 21.9531C587.152 21.8438 586.807 21.6797 586.494 21.4609C586.186 21.2422 585.938 20.9727 585.75 20.6523C585.566 20.3281 585.475 19.9531 585.475 19.5273H586.6C586.6 19.8203 586.656 20.0723 586.77 20.2832C586.883 20.4902 587.037 20.6621 587.232 20.7988C587.432 20.9355 587.656 21.0371 587.906 21.1035C588.16 21.166 588.424 21.1973 588.697 21.1973C589.092 21.1973 589.426 21.1426 589.699 21.0332C589.973 20.9238 590.18 20.7676 590.32 20.5645C590.465 20.3613 590.537 20.1211 590.537 19.8438ZM595.582 22.1172C595.141 22.1172 594.74 22.043 594.381 21.8945C594.025 21.7422 593.719 21.5293 593.461 21.2559C593.207 20.9824 593.012 20.6582 592.875 20.2832C592.738 19.9082 592.67 19.498 592.67 19.0527V18.8066C592.67 18.291 592.746 17.832 592.898 17.4297C593.051 17.0234 593.258 16.6797 593.52 16.3984C593.781 16.1172 594.078 15.9043 594.41 15.7598C594.742 15.6152 595.086 15.543 595.441 15.543C595.895 15.543 596.285 15.6211 596.613 15.7773C596.945 15.9336 597.217 16.1523 597.428 16.4336C597.639 16.7109 597.795 17.0391 597.896 17.418C597.998 17.793 598.049 18.2031 598.049 18.6484V19.1348H593.314V18.25H596.965V18.168C596.949 17.8867 596.891 17.6133 596.789 17.3477C596.691 17.082 596.535 16.8633 596.32 16.6914C596.105 16.5195 595.812 16.4336 595.441 16.4336C595.195 16.4336 594.969 16.4863 594.762 16.5918C594.555 16.6934 594.377 16.8457 594.229 17.0488C594.08 17.252 593.965 17.5 593.883 17.793C593.801 18.0859 593.76 18.4238 593.76 18.8066V19.0527C593.76 19.3535 593.801 19.6367 593.883 19.9023C593.969 20.1641 594.092 20.3945 594.252 20.5938C594.416 20.793 594.613 20.9492 594.844 21.0625C595.078 21.1758 595.344 21.2324 595.641 21.2324C596.023 21.2324 596.348 21.1543 596.613 20.998C596.879 20.8418 597.111 20.6328 597.311 20.3711L597.967 20.8926C597.83 21.0996 597.656 21.2969 597.445 21.4844C597.234 21.6719 596.975 21.8242 596.666 21.9414C596.361 22.0586 596 22.1172 595.582 22.1172ZM599.309 13H600.398V20.7695L600.305 22H599.309V13ZM604.682 18.7773V18.9004C604.682 19.3613 604.627 19.7891 604.518 20.1836C604.408 20.5742 604.248 20.9141 604.037 21.2031C603.826 21.4922 603.568 21.7168 603.264 21.877C602.959 22.0371 602.609 22.1172 602.215 22.1172C601.812 22.1172 601.459 22.0488 601.154 21.9121C600.854 21.7715 600.6 21.5703 600.393 21.3086C600.186 21.0469 600.02 20.7305 599.895 20.3594C599.773 19.9883 599.689 19.5703 599.643 19.1055V18.5664C599.689 18.0977 599.773 17.6777 599.895 17.3066C600.02 16.9355 600.186 16.6191 600.393 16.3574C600.6 16.0918 600.854 15.8906 601.154 15.7539C601.455 15.6133 601.805 15.543 602.203 15.543C602.602 15.543 602.955 15.6211 603.264 15.7773C603.572 15.9297 603.83 16.1484 604.037 16.4336C604.248 16.7188 604.408 17.0605 604.518 17.459C604.627 17.8535 604.682 18.293 604.682 18.7773ZM603.592 18.9004V18.7773C603.592 18.4609 603.562 18.1641 603.504 17.8867C603.445 17.6055 603.352 17.3594 603.223 17.1484C603.094 16.9336 602.924 16.7656 602.713 16.6445C602.502 16.5195 602.242 16.457 601.934 16.457C601.66 16.457 601.422 16.5039 601.219 16.5977C601.02 16.6914 600.85 16.8184 600.709 16.9785C600.568 17.1348 600.453 17.3145 600.363 17.5176C600.277 17.7168 600.213 17.9238 600.17 18.1387V19.5508C600.232 19.8242 600.334 20.0879 600.475 20.3418C600.619 20.5918 600.811 20.7969 601.049 20.957C601.291 21.1172 601.59 21.1973 601.945 21.1973C602.238 21.1973 602.488 21.1387 602.695 21.0215C602.906 20.9004 603.076 20.7344 603.205 20.5234C603.338 20.3125 603.436 20.0684 603.498 19.791C603.561 19.5137 603.592 19.2168 603.592 18.9004ZM609.791 20.916V17.6523C609.791 17.4023 609.74 17.1855 609.639 17.002C609.541 16.8145 609.393 16.6699 609.193 16.5684C608.994 16.4668 608.748 16.416 608.455 16.416C608.182 16.416 607.941 16.4629 607.734 16.5566C607.531 16.6504 607.371 16.7734 607.254 16.9258C607.141 17.0781 607.084 17.2422 607.084 17.418H606C606 17.1914 606.059 16.9668 606.176 16.7441C606.293 16.5215 606.461 16.3203 606.68 16.1406C606.902 15.957 607.168 15.8125 607.477 15.707C607.789 15.5977 608.137 15.543 608.52 15.543C608.98 15.543 609.387 15.6211 609.738 15.7773C610.094 15.9336 610.371 16.1699 610.57 16.4863C610.773 16.7988 610.875 17.1914 610.875 17.6641V20.6172C610.875 20.8281 610.893 21.0527 610.928 21.291C610.967 21.5293 611.023 21.7344 611.098 21.9062V22H609.967C609.912 21.875 609.869 21.709 609.838 21.502C609.807 21.291 609.791 21.0957 609.791 20.916ZM609.979 18.1562L609.99 18.918H608.895C608.586 18.918 608.311 18.9434 608.068 18.9941C607.826 19.041 607.623 19.1133 607.459 19.2109C607.295 19.3086 607.17 19.4316 607.084 19.5801C606.998 19.7246 606.955 19.8945 606.955 20.0898C606.955 20.2891 607 20.4707 607.09 20.6348C607.18 20.7988 607.314 20.9297 607.494 21.0273C607.678 21.1211 607.902 21.168 608.168 21.168C608.5 21.168 608.793 21.0977 609.047 20.957C609.301 20.8164 609.502 20.6445 609.65 20.4414C609.803 20.2383 609.885 20.041 609.896 19.8496L610.359 20.3711C610.332 20.5352 610.258 20.7168 610.137 20.916C610.016 21.1152 609.854 21.3066 609.65 21.4902C609.451 21.6699 609.213 21.8203 608.936 21.9414C608.662 22.0586 608.354 22.1172 608.01 22.1172C607.58 22.1172 607.203 22.0332 606.879 21.8652C606.559 21.6973 606.309 21.4727 606.129 21.1914C605.953 20.9062 605.865 20.5879 605.865 20.2363C605.865 19.8965 605.932 19.5977 606.064 19.3398C606.197 19.0781 606.389 18.8613 606.639 18.6895C606.889 18.5137 607.189 18.3809 607.541 18.291C607.893 18.2012 608.285 18.1562 608.719 18.1562H609.979ZM616.271 20.3184C616.271 20.1621 616.236 20.0176 616.166 19.8848C616.1 19.748 615.961 19.625 615.75 19.5156C615.543 19.4023 615.23 19.3047 614.812 19.2227C614.461 19.1484 614.143 19.0605 613.857 18.959C613.576 18.8574 613.336 18.7344 613.137 18.5898C612.941 18.4453 612.791 18.2754 612.686 18.0801C612.58 17.8848 612.527 17.6562 612.527 17.3945C612.527 17.1445 612.582 16.9082 612.691 16.6855C612.805 16.4629 612.963 16.2656 613.166 16.0938C613.373 15.9219 613.621 15.7871 613.91 15.6895C614.199 15.5918 614.521 15.543 614.877 15.543C615.385 15.543 615.818 15.6328 616.178 15.8125C616.537 15.9922 616.812 16.2324 617.004 16.5332C617.195 16.8301 617.291 17.1602 617.291 17.5234H616.207C616.207 17.3477 616.154 17.1777 616.049 17.0137C615.947 16.8457 615.797 16.707 615.598 16.5977C615.402 16.4883 615.162 16.4336 614.877 16.4336C614.576 16.4336 614.332 16.4805 614.145 16.5742C613.961 16.6641 613.826 16.7793 613.74 16.9199C613.658 17.0605 613.617 17.209 613.617 17.3652C613.617 17.4824 613.637 17.5879 613.676 17.6816C613.719 17.7715 613.793 17.8555 613.898 17.9336C614.004 18.0078 614.152 18.0781 614.344 18.1445C614.535 18.2109 614.779 18.2773 615.076 18.3438C615.596 18.4609 616.023 18.6016 616.359 18.7656C616.695 18.9297 616.945 19.1309 617.109 19.3691C617.273 19.6074 617.355 19.8965 617.355 20.2363C617.355 20.5137 617.297 20.7676 617.18 20.998C617.066 21.2285 616.9 21.4277 616.682 21.5957C616.467 21.7598 616.209 21.8887 615.908 21.9824C615.611 22.0723 615.277 22.1172 614.906 22.1172C614.348 22.1172 613.875 22.0176 613.488 21.8184C613.102 21.6191 612.809 21.3613 612.609 21.0449C612.41 20.7285 612.311 20.3945 612.311 20.043H613.4C613.416 20.3398 613.502 20.5762 613.658 20.752C613.814 20.9238 614.006 21.0469 614.232 21.1211C614.459 21.1914 614.684 21.2266 614.906 21.2266C615.203 21.2266 615.451 21.1875 615.65 21.1094C615.854 21.0312 616.008 20.9238 616.113 20.7871C616.219 20.6504 616.271 20.4941 616.271 20.3184ZM621.434 15.6602V16.4922H618.006V15.6602H621.434ZM619.166 14.1191H620.25V20.4297C620.25 20.6445 620.283 20.8066 620.35 20.916C620.416 21.0254 620.502 21.0977 620.607 21.1328C620.713 21.168 620.826 21.1855 620.947 21.1855C621.037 21.1855 621.131 21.1777 621.229 21.1621C621.33 21.1426 621.406 21.127 621.457 21.1152L621.463 22C621.377 22.0273 621.264 22.0527 621.123 22.0762C620.986 22.1035 620.82 22.1172 620.625 22.1172C620.359 22.1172 620.115 22.0645 619.893 21.959C619.67 21.8535 619.492 21.6777 619.359 21.4316C619.23 21.1816 619.166 20.8457 619.166 20.4238V14.1191ZM623.883 15.6602V22H622.793V15.6602H623.883ZM622.711 13.9785C622.711 13.8027 622.764 13.6543 622.869 13.5332C622.979 13.4121 623.139 13.3516 623.35 13.3516C623.557 13.3516 623.715 13.4121 623.824 13.5332C623.938 13.6543 623.994 13.8027 623.994 13.9785C623.994 14.1465 623.938 14.291 623.824 14.4121C623.715 14.5293 623.557 14.5879 623.35 14.5879C623.139 14.5879 622.979 14.5293 622.869 14.4121C622.764 14.291 622.711 14.1465 622.711 13.9785ZM629.361 20.916V17.6523C629.361 17.4023 629.311 17.1855 629.209 17.002C629.111 16.8145 628.963 16.6699 628.764 16.5684C628.564 16.4668 628.318 16.416 628.025 16.416C627.752 16.416 627.512 16.4629 627.305 16.5566C627.102 16.6504 626.941 16.7734 626.824 16.9258C626.711 17.0781 626.654 17.2422 626.654 17.418H625.57C625.57 17.1914 625.629 16.9668 625.746 16.7441C625.863 16.5215 626.031 16.3203 626.25 16.1406C626.473 15.957 626.738 15.8125 627.047 15.707C627.359 15.5977 627.707 15.543 628.09 15.543C628.551 15.543 628.957 15.6211 629.309 15.7773C629.664 15.9336 629.941 16.1699 630.141 16.4863C630.344 16.7988 630.445 17.1914 630.445 17.6641V20.6172C630.445 20.8281 630.463 21.0527 630.498 21.291C630.537 21.5293 630.594 21.7344 630.668 21.9062V22H629.537C629.482 21.875 629.439 21.709 629.408 21.502C629.377 21.291 629.361 21.0957 629.361 20.916ZM629.549 18.1562L629.561 18.918H628.465C628.156 18.918 627.881 18.9434 627.639 18.9941C627.396 19.041 627.193 19.1133 627.029 19.2109C626.865 19.3086 626.74 19.4316 626.654 19.5801C626.568 19.7246 626.525 19.8945 626.525 20.0898C626.525 20.2891 626.57 20.4707 626.66 20.6348C626.75 20.7988 626.885 20.9297 627.064 21.0273C627.248 21.1211 627.473 21.168 627.738 21.168C628.07 21.168 628.363 21.0977 628.617 20.957C628.871 20.8164 629.072 20.6445 629.221 20.4414C629.373 20.2383 629.455 20.041 629.467 19.8496L629.93 20.3711C629.902 20.5352 629.828 20.7168 629.707 20.916C629.586 21.1152 629.424 21.3066 629.221 21.4902C629.021 21.6699 628.783 21.8203 628.506 21.9414C628.232 22.0586 627.924 22.1172 627.58 22.1172C627.15 22.1172 626.773 22.0332 626.449 21.8652C626.129 21.6973 625.879 21.4727 625.699 21.1914C625.523 20.9062 625.436 20.5879 625.436 20.2363C625.436 19.8965 625.502 19.5977 625.635 19.3398C625.768 19.0781 625.959 18.8613 626.209 18.6895C626.459 18.5137 626.76 18.3809 627.111 18.291C627.463 18.2012 627.855 18.1562 628.289 18.1562H629.549ZM633.234 17.0137V22H632.15V15.6602H633.176L633.234 17.0137ZM632.977 18.5898L632.525 18.5723C632.529 18.1387 632.594 17.7383 632.719 17.3711C632.844 17 633.02 16.6777 633.246 16.4043C633.473 16.1309 633.742 15.9199 634.055 15.7715C634.371 15.6191 634.721 15.543 635.104 15.543C635.416 15.543 635.697 15.5859 635.947 15.6719C636.197 15.7539 636.41 15.8867 636.586 16.0703C636.766 16.2539 636.902 16.4922 636.996 16.7852C637.09 17.0742 637.137 17.4277 637.137 17.8457V22H636.047V17.834C636.047 17.502 635.998 17.2363 635.9 17.0371C635.803 16.834 635.66 16.6875 635.473 16.5977C635.285 16.5039 635.055 16.457 634.781 16.457C634.512 16.457 634.266 16.5137 634.043 16.627C633.824 16.7402 633.635 16.8965 633.475 17.0957C633.318 17.2949 633.195 17.5234 633.105 17.7812C633.02 18.0352 632.977 18.3047 632.977 18.5898Z" fill="white"/>
</g>
<defs>
<filter id="filter0_d_1056_2103" x="174.607" y="-217.663" width="606.919" height="513.793" filterUnits="userSpaceOnUse" color-interpolation-filters="sRGB">
<feFlood flood-opacity="0" result="BackgroundImageFix"/>
<feColorMatrix in="SourceAlpha" type="matrix" values="0 0 0 0 0 0 0 0 0 0 0 0 0 0 0 0 0 0 127 0" result="hardAlpha"/>
<feOffset/>
<feGaussianBlur stdDeviation="30.3029"/>
<feColorMatrix type="matrix" values="0 0 0 0 0.129427 0 0 0 0 0.224219 0 0 0 0 0.4375 0 0 0 0.3 0"/>
<feBlend mode="normal" in2="BackgroundImageFix" result="effect1_dropShadow_1056_2103"/>
<feBlend mode="normal" in="SourceGraphic" in2="effect1_dropShadow_1056_2103" result="shape"/>
</filter>
<filter id="filter1_d_1056_2103" x="181.125" y="-230.604" width="603.585" height="512.4" filterUnits="userSpaceOnUse" color-interpolation-filters="sRGB">
<feFlood flood-opacity="0" result="BackgroundImageFix"/>
<feColorMatrix in="SourceAlpha" type="matrix" values="0 0 0 0 0 0 0 0 0 0 0 0 0 0 0 0 0 0 127 0" result="hardAlpha"/>
<feOffset/>
<feGaussianBlur stdDeviation="30.3029"/>
<feColorMatrix type="matrix" values="0 0 0 0 0.129427 0 0 0 0 0.224219 0 0 0 0 0.4375 0 0 0 0.3 0"/>
<feBlend mode="normal" in2="BackgroundImageFix" result="effect1_dropShadow_1056_2103"/>
<feBlend mode="normal" in="SourceGraphic" in2="effect1_dropShadow_1056_2103" result="shape"/>
</filter>
<filter id="filter2_d_1056_2103" x="215.625" y="-202.985" width="551.889" height="465.045" filterUnits="userSpaceOnUse" color-interpolation-filters="sRGB">
<feFlood flood-opacity="0" result="BackgroundImageFix"/>
<feColorMatrix in="SourceAlpha" type="matrix" values="0 0 0 0 0 0 0 0 0 0 0 0 0 0 0 0 0 0 127 0" result="hardAlpha"/>
<feOffset/>
<feGaussianBlur stdDeviation="30.3029"/>
<feColorMatrix type="matrix" values="0 0 0 0 0.129427 0 0 0 0 0.224219 0 0 0 0 0.4375 0 0 0 0.3 0"/>
<feBlend mode="normal" in2="BackgroundImageFix" result="effect1_dropShadow_1056_2103"/>
<feBlend mode="normal" in="SourceGraphic" in2="effect1_dropShadow_1056_2103" result="shape"/>
</filter>
<filter id="filter3_d_1056_2103" x="174.41" y="-261.316" width="622.776" height="528.56" filterUnits="userSpaceOnUse" color-interpolation-filters="sRGB">
<feFlood flood-opacity="0" result="BackgroundImageFix"/>
<feColorMatrix in="SourceAlpha" type="matrix" values="0 0 0 0 0 0 0 0 0 0 0 0 0 0 0 0 0 0 127 0" result="hardAlpha"/>
<feOffset/>
<feGaussianBlur stdDeviation="30.3029"/>
<feColorMatrix type="matrix" values="0 0 0 0 0.129427 0 0 0 0 0.224219 0 0 0 0 0.4375 0 0 0 0.3 0"/>
<feBlend mode="normal" in2="BackgroundImageFix" result="effect1_dropShadow_1056_2103"/>
<feBlend mode="normal" in="SourceGraphic" in2="effect1_dropShadow_1056_2103" result="shape"/>
</filter>
<linearGradient id="paint0_linear_1056_2103" x1="158.139" y1="122.102" x2="525.761" y2="355.301" gradientUnits="userSpaceOnUse">
<stop stop-color="#E1467C"/>
<stop offset="1" stop-color="#FF9CE3"/>
</linearGradient>
<linearGradient id="paint1_linear_1056_2103" x1="693.716" y1="149.855" x2="275.075" y2="-82.1234" gradientUnits="userSpaceOnUse">
<stop stop-color="#E0695B"/>
<stop offset="1" stop-color="#3913B8"/>
</linearGradient>
<linearGradient id="paint2_linear_1056_2103" x1="694.077" y1="133.915" x2="284.154" y2="-93.2332" gradientUnits="userSpaceOnUse">
<stop stop-color="#FF5A3D"/>
<stop offset="1" stop-color="#2FB8FF"/>
</linearGradient>
<linearGradient id="paint3_linear_1056_2103" x1="681.782" y1="127.14" x2="311.869" y2="-77.8369" gradientUnits="userSpaceOnUse">
<stop stop-color="#FF5A3D"/>
<stop offset="1" stop-color="#2FB8FF"/>
</linearGradient>
<linearGradient id="paint4_linear_1056_2103" x1="703.973" y1="114.883" x2="280.432" y2="-119.812" gradientUnits="userSpaceOnUse">
<stop stop-color="#FF6C6C"/>
<stop offset="1" stop-color="#2FB8FF"/>
</linearGradient>
<clipPath id="clip0_1056_2103">
<rect width="701" height="428" fill="white"/>
</clipPath>
</defs>
</svg>
