<?xml version="1.0" encoding="utf-8"?>
<!-- Generator: Adobe Illustrator 19.0.0, SVG Export Plug-In . SVG Version: 6.00 Build 0)  -->
<svg version="1.1" id="Layer_1" xmlns="http://www.w3.org/2000/svg" xmlns:xlink="http://www.w3.org/1999/xlink" x="0px" y="0px"
	 viewBox="0 0 500 500" style="enable-background:new 0 0 500 500;" xml:space="preserve">
<style type="text/css">
	.st0{fill:#FFD911;}
	.st1{fill:#A4001D;}
</style>
<g id="XMLID_1_">
	<path id="XMLID_8_" class="st0" d="M157.6,67.5h114.1c9.5,9.3,18.7,19,28.4,28.2c2,2.3,5.3,4.2,4.8,7.8c0.7,13.1,0,26.3,0.2,39.4
		c-19.3,0-38.6,0-57.9,0c0-6,0-12-0.1-17.9c-21.8,0-43.6,0-65.4,0c0,10,0,20.1,0,30.1c25.1,0,50.2,0.1,75.3-0.1c4,0,8-0.1,12,0.4
		c2.8,1.7,5,4.2,7.3,6.4c8,8.2,16.1,16.3,24.4,24.3c1.9,2,4.7,4,4.2,7.2c0.5,7.5,0.3,15.1,0.2,22.6c13.5-0.1,26.9,0,40.4,0.1
		c10.3,10.7,21.1,20.9,31.4,31.6v56.4c-20.1,0-40.2,0-60.2,0c0-10.7-0.1-21.3,0-32c-5,0.1-10-0.1-14.9,0.5c-5.7,4-10,9.6-15,14.3
		c-5.7,5.4-10.8,11.6-16.9,16.6c-6,1.2-12.4,0.6-18.6,0.7c0,23.3,0,46.7,0,70c21.8,0,43.6,0,65.5,0c0-9.5,0-18.9,0-28.4
		c20.1,0,40.2,0,60.2,0v58.2c-9.6,9.6-19.1,19.3-28.8,28.7H222.5c-3.7-3.5-7.2-7.3-10.9-10.9c-5.6-5.6-11.8-10.6-17.1-16.5
		c-1.7-1.8-0.9-4.6-1.3-6.8c-0.1-31.5,0.1-63,0-94.5c-12.9-0.3-25.8,0.7-38.6-0.3c-5.2-3.5-9.2-8.5-13.6-12.9
		c-5.6-6.4-12.1-12.2-17.9-18.4v-49.5c19.1,0,38.2,0,57.3,0c0,7.8,0,15.5,0,23.3c5-0.1,9.9,0.1,14.9-0.4c2.5-1.5,4.4-3.6,6.5-5.6
		c6.6-6.7,13.3-13.4,19.8-20.2c2-1.8,3.8-4.4,6.9-3.9c5.4-0.4,10.8-0.3,16.2-0.2c0-1.5,0-3.1,0-4.6c-26.1,0-52.2-0.1-78.2,0.1
		c-2.4-0.2-5,0.3-7.3-0.4c-3.8-2.4-6.7-5.9-9.9-9c-8.6-8.9-17.6-17.4-26.2-26.3v-72.3c4.2-4.4,8.7-8.6,12.7-13.1
		C142.9,82.4,150.8,75.5,157.6,67.5 M161.1,73.7c-1.7,0.9-2.9,2.5-4.3,3.8c-9.4,9.7-19.1,19.1-28.6,28.8c0.2,22.2-0.1,44.4,0.2,66.6
		c9.9,9.8,19.8,19.7,29.6,29.6c2.4,2.2,4.8,5.2,8.6,4.2c28-0.1,56-0.1,84,0c1.4,30.5,0.3,61,0.7,91.6c5.4-0.1,10.7-0.1,16.1-0.1
		c10.3-10.2,20.2-20.8,30.4-31.1c2.7-2.4,1.4-6.3,1.7-9.4c-0.3-20.3,0.2-40.6-0.2-60.8c0.6-2.4-1.2-4-2.6-5.4
		c-10.2-10.1-20.4-20.2-30.5-30.4c-29.9-0.2-59.8,0-89.7-0.1c0-14.1,0-28.2,0-42.3c25.5,0,51,0,76.5,0c0,6,0,12,0,17.9
		c15.4,0,30.9,0,46.3,0c0-10.7,0-21.3,0.1-32C289,94,278.6,83.5,268.1,73.2c-28,0.2-56.1,0.1-84.1,0.1
		C176.3,73.4,168.7,72.9,161.1,73.7 M228.9,222c-1.9,1.1-3.3,2.9-4.8,4.4c-7.1,7.4-14.5,14.5-21.7,21.8c-1.3,1.6-3.4,3.1-3.3,5.3
		c0,47.3,0,94.7,0,142c0.6,2-0.6,4.8,1,6.5c7.9,8.1,15.6,16.4,23.6,24.4c1.9,2.7,5.6,1.1,8.3,1.6c37.6-0.2,75.2,0.1,112.8-0.2
		c9-8.8,17.4-18.2,26.3-27c-0.2-16.5,0-32.9-0.1-49.4c-16.2,0-32.4,0-48.7,0c0,9.7,0,19.3,0,29c-25.7,0-51.4,0-77.1,0
		c0-52.9,0-105.8,0-158.8C239.9,221.6,234.3,221.3,228.9,222 M305,221.6c0,14.9,0,29.7,0,44.6c5.8,0,11.6,0,17.4,0
		c0,10.6,0,21.2,0,31.8c16.2,0,32.4,0,48.7,0c0-15.8,0.1-31.6-0.1-47.4c-8.7-8.5-17.2-17.2-25.8-25.8c-1.6-1.3-3.1-3.4-5.3-3.3
		C328.2,221.4,316.6,221.7,305,221.6 M128.3,228.6c0.1,14-0.2,27.9,0.2,41.9c9,8.6,17.9,17.4,26.9,25.9c1.5,1.7,3.7,2,5.9,1.7
		c10.6,0.1,21.3-0.1,31.9-0.1c0-15.4,0-30.9,0-46.3c-6.2,0-12.4,0-18.5,0c0-7.7,0-15.4,0-23.2C159.2,228.6,143.8,228.6,128.3,228.6z
		"/>
	<path id="XMLID_9_" class="st1" d="M161.1,73.7c7.6-0.8,15.2-0.3,22.9-0.4c28,0,56.1,0.1,84.1-0.1c10.5,10.3,20.9,20.7,31.3,31.3
		c-0.1,10.7-0.1,21.3-0.1,32c-15.4,0-30.9,0-46.3,0c0-6,0-12,0-17.9c-25.5,0-51,0-76.5,0c0,14.1,0,28.2,0,42.3
		c29.9,0.1,59.8-0.1,89.7,0.1c10.1,10.2,20.2,20.4,30.5,30.4c1.4,1.5,3.2,3.1,2.6,5.4c0.4,20.3-0.1,40.6,0.2,60.8
		c-0.4,3.1,1,7-1.7,9.4c-10.2,10.3-20,20.9-30.4,31.1c-5.4,0-10.7,0-16.1,0.1c-0.4-30.5,0.8-61.1-0.7-91.6c-28,0-56,0-84,0
		c-3.7,1-6.2-2-8.6-4.2c-9.8-9.9-19.6-19.8-29.6-29.6c-0.2-22.2,0.1-44.4-0.2-66.6c9.4-9.7,19.2-19.1,28.6-28.8
		C158.2,76.1,159.4,74.6,161.1,73.7z"/>
	<path id="XMLID_10_" class="st1" d="M228.9,222c5.5-0.6,11-0.4,16.5-0.4c0,52.9,0,105.8,0,158.8c25.7,0,51.4,0,77.1,0
		c0-9.7,0-19.3,0-29c16.2,0,32.4,0,48.7,0c0,16.4-0.1,32.9,0.1,49.4c-8.9,8.9-17.3,18.3-26.3,27c-37.6,0.3-75.2-0.1-112.8,0.2
		c-2.7-0.5-6.4,1.1-8.3-1.6c-8-8-15.7-16.3-23.6-24.4c-1.7-1.7-0.5-4.5-1-6.5c0-47.3,0-94.7,0-142c-0.1-2.3,2-3.8,3.3-5.3
		c7.2-7.2,14.6-14.4,21.7-21.8C225.6,224.9,227,223.1,228.9,222z"/>
	<path id="XMLID_11_" class="st1" d="M305,221.6c11.6,0.1,23.2-0.2,34.8,0c2.3-0.1,3.7,2,5.3,3.3c8.6,8.6,17.1,17.3,25.8,25.8
		c0.2,15.8,0.1,31.6,0.1,47.4c-16.2,0-32.4,0-48.7,0c0-10.6,0-21.2,0-31.8c-5.8,0-11.6,0-17.4,0C305,251.3,305,236.5,305,221.6z"/>
	<path id="XMLID_12_" class="st1" d="M128.3,228.6c15.4,0,30.9,0,46.3,0c0,7.7,0,15.4,0,23.2c6.2,0,12.4,0,18.5,0
		c0,15.4,0,30.9,0,46.3c-10.6-0.1-21.3,0.1-31.9,0.1c-2.1,0.3-4.4,0-5.9-1.7c-9-8.6-17.9-17.3-26.9-25.9
		C128.1,256.5,128.4,242.5,128.3,228.6z"/>
</g>
</svg>
