<svg width="106" height="72" viewBox="0 0 106 72" fill="none" xmlns="http://www.w3.org/2000/svg">
<path d="M58.4835 71.5293C41.7277 75.758 16.7075 50.54 20.9363 33.6748C25.165 16.8097 68.8261 -1.88749 81.3596 10.7473C93.893 23.2823 75.2456 67.1992 58.4835 71.5293Z" fill="#C9E8DC"/>
<path d="M44.4783 1.15118C51.8677 5.5633 51.7969 23.2471 44.3705 27.6914C36.944 32.1357 14.9929 23.3485 15.0282 14.4921C15.0266 5.67107 37.0534 -3.22555 44.4783 1.15118Z" fill="#FFF5DB"/>
<path d="M74.4478 34.0625L74.1744 35.753C74.1252 36.0576 73.9625 36.3323 73.719 36.5218C73.4754 36.7113 73.1692 36.8016 72.8619 36.7744L70.8239 36.5959L70.1161 42.6937C70.0791 43.1248 70.1161 43.5929 70.2931 43.8904C70.5263 44.3328 70.9831 44.5628 71.5992 44.6271C72.034 44.6575 72.471 44.6266 72.8973 44.5354C72.9971 44.5151 73.1002 44.5161 73.1997 44.5381C73.2992 44.5602 73.3929 44.603 73.4748 44.6637C73.5567 44.7244 73.625 44.8016 73.6751 44.8903C73.7252 44.9791 73.7562 45.0774 73.7658 45.1788L73.9154 46.6635C73.9484 47.0003 73.8646 47.3381 73.6781 47.6204C73.4915 47.9028 73.2135 48.1124 72.8908 48.2141C71.6655 48.5991 70.3668 48.6906 69.0996 48.4811C68.0122 48.2929 66.9185 47.7782 66.2654 46.8726C65.2022 45.4105 65.4869 43.847 65.6735 42.2079L66.4488 36.2018L64.895 36.0249C64.6612 35.9982 64.4474 35.88 64.3006 35.6961C64.1538 35.5122 64.0858 35.2776 64.1116 35.0437L64.3368 33.0218C64.3486 32.9146 64.3815 32.8108 64.4335 32.7163C64.4855 32.6219 64.5557 32.5386 64.64 32.4714C64.7243 32.4041 64.821 32.3542 64.9247 32.3244C65.0284 32.2947 65.1369 32.2857 65.244 32.298L66.941 32.4926L67.1694 30.2938C67.1934 30.0572 67.3086 29.8393 67.4906 29.6862C67.6725 29.5331 67.9069 29.4568 68.1441 29.4734L70.8303 29.6616C70.9553 29.6703 71.0771 29.7047 71.1881 29.7626C71.2992 29.8206 71.397 29.9008 71.4756 29.9984C71.5541 30.096 71.6116 30.2087 71.6445 30.3296C71.6774 30.4505 71.685 30.5768 71.6667 30.7007L71.3579 32.7918L73.6339 33.0138C73.7576 33.0259 73.8775 33.0631 73.9863 33.1231C74.0951 33.1831 74.1905 33.2647 74.2667 33.3629C74.3429 33.4611 74.3982 33.5737 74.4294 33.694C74.4605 33.8143 74.4668 33.9397 74.4478 34.0625Z" fill="#35355B"/>
<path d="M31.6296 40.5595C31.5733 41.4232 31.3786 42.6216 31.9641 43.3181C32.193 43.5712 32.4875 43.756 32.815 43.8521C33.1131 43.9466 33.3676 44.1443 33.533 44.4096C33.6984 44.6749 33.7638 44.9905 33.7174 45.2997L33.5019 46.6332C33.4554 46.9192 33.3148 47.1817 33.1024 47.3789C32.8901 47.5761 32.618 47.6969 32.3293 47.7221C32.1427 47.7398 31.9513 47.7479 31.7695 47.7479C31.1364 47.7707 30.5066 47.6468 29.9294 47.3859C29.6319 47.2366 29.3675 47.0289 29.1519 46.7752C28.9364 46.5215 28.7741 46.2271 28.6747 45.9093C27.5601 47.1624 25.8888 47.7479 24.105 47.7205C21.7357 47.7205 19.9519 46.8005 18.8098 45.3238C17.7225 43.9293 17.1643 42.0618 17.137 40.2233C17.1177 37.9392 17.9219 35.6536 19.5304 34.148C20.8172 32.9497 22.6236 32.2178 24.7983 32.2532C29.6511 32.3368 31.9368 35.9608 31.6296 40.5595ZM21.8901 40.0303C21.8628 41.9605 22.4048 43.9872 24.4637 44.0145C26.5821 44.0435 27.4459 42.406 27.5568 40.5032C27.6694 38.3574 26.7767 36.1602 24.6036 36.1602C22.4885 36.1554 21.8901 38.0792 21.8901 40.0303Z" fill="#35355B"/>
<path d="M62.5256 41.478C62.3197 43.923 61.953 46.9469 61.0892 49.3935C60.0566 52.403 57.8545 54.1868 54.6231 54.219C51.4431 54.2431 49.389 52.7263 48.6539 49.9951C48.5581 49.6348 48.6049 49.2514 48.7847 48.9248C48.9645 48.5982 49.2634 48.3535 49.619 48.2418L50.9509 47.83C51.2989 47.7209 51.6754 47.7483 52.004 47.9066C52.3326 48.0649 52.5887 48.3423 52.7202 48.6825C53.0677 49.5736 53.6853 50.2814 54.8836 50.2058C57.1146 50.0658 57.3656 46.7491 57.4765 45.1326C56.7656 45.4408 55.9995 45.6017 55.2246 45.6055C52.9406 45.6891 51.1005 44.5744 50.1804 42.456C49.1365 40.061 49.1831 36.2922 49.4775 33.6945C49.5186 33.3488 49.6819 33.0292 49.9379 32.7933C50.1939 32.5573 50.5258 32.4206 50.8737 32.4077L52.8634 32.3273C53.0725 32.3191 53.2811 32.3559 53.4748 32.4352C53.6686 32.5145 53.843 32.6344 53.9865 32.7868C54.13 32.9393 54.2391 33.1207 54.3064 33.3189C54.3738 33.5171 54.3978 33.7275 54.377 33.9358C54.2435 35.258 54.1293 36.6477 54.11 37.8895C54.11 39.5897 54.3609 41.5118 55.8101 41.589C56.1684 41.6299 56.5306 41.5613 56.8491 41.3921C57.1675 41.223 57.4272 40.9613 57.594 40.6416C57.6165 39.4739 57.446 37.2429 57.2723 35.451C57.2415 35.1034 57.3477 34.7575 57.5682 34.4871C57.7888 34.2167 58.1062 34.0431 58.4529 34.0033L61.1327 33.7798C61.3093 33.7595 61.4883 33.7745 61.6591 33.8239C61.83 33.8733 61.9893 33.9561 62.1279 34.0676C62.2664 34.1791 62.3815 34.317 62.4663 34.4733C62.5512 34.6296 62.6041 34.8012 62.6221 34.9781C62.8119 36.9453 62.7251 39.0991 62.5256 41.478Z" fill="#35355B"/>
<path d="M6.96644 27.7943C10.7303 27.6543 15.0218 28.6854 14.7982 33.4514C14.6599 35.9317 12.5962 37.1027 12.5962 37.1027C14.7435 37.3809 16.0255 38.8865 16.1638 40.9775C16.3247 43.2906 15.5204 45.0454 14.158 46.1617C12.5415 47.5274 10.2285 48.0292 7.80286 48.0565C5.75203 48.0791 3.81379 47.8217 2.00261 47.1494C1.65239 47.021 1.34985 46.7885 1.13563 46.4831C0.921415 46.1777 0.805789 45.8141 0.804281 45.4411L3.07358e-05 30.236C-0.00233368 29.8298 0.13178 29.4346 0.380871 29.1137C0.629963 28.7929 0.979595 28.565 1.37369 28.4666C2.82938 28.1079 5.25178 27.857 6.96644 27.7943ZM5.37563 35.4652C5.37682 35.6105 5.43431 35.7497 5.536 35.8535C5.63769 35.9573 5.77567 36.0176 5.92092 36.0218C6.75412 36.0411 7.95406 35.9445 8.78083 35.5392C9.53199 35.2046 10.1464 34.5918 10.1175 33.5591C10.0901 31.9715 8.72453 31.6643 7.38304 31.637C6.83643 31.6361 6.2911 31.69 5.75524 31.7978C5.62681 31.8257 5.51228 31.8978 5.4317 32.0016C5.35112 32.1055 5.30964 32.2343 5.31451 32.3656C5.33864 33.1232 5.36437 34.6079 5.37563 35.4652ZM8.19534 44.1817C9.69929 44.127 11.1775 43.3774 11.1775 41.785C11.1727 41.4274 11.0784 41.0768 10.903 40.7652C10.7277 40.4535 10.4769 40.1908 10.1738 40.0012C9.50466 39.583 8.64089 39.472 7.83182 39.4446C7.16513 39.4393 6.49928 39.4932 5.8421 39.6055C5.71228 39.6291 5.59478 39.6973 5.50991 39.7983C5.42503 39.8994 5.37811 40.0269 5.37724 40.1588L5.35472 43.3871C5.35392 43.5155 5.39678 43.6403 5.47628 43.7412C5.55578 43.842 5.66719 43.9128 5.79224 43.942C6.57735 44.1352 7.38592 44.2159 8.19373 44.1817H8.19534Z" fill="#35355B"/>
<path d="M38.2003 33.4804C39.204 32.6151 40.7642 32.2258 42.0752 32.2258C44.0536 32.2532 45.6702 33.0301 46.6739 34.2043C48.0942 35.9044 48.5413 38.3864 48.3741 40.8104C48.2313 42.6296 47.4629 44.3433 46.1994 45.66C44.7517 47.0803 42.7153 47.7511 40.597 47.7511C38.0057 47.7511 36.3055 46.7474 35.1908 45.3544C34.2144 44.0676 33.7126 42.3996 33.6016 40.1975L33.0177 26.5156C33.013 26.2115 33.1257 25.9172 33.3324 25.694C33.5391 25.4708 33.8239 25.3359 34.1276 25.3173L37.0808 24.7801C37.2443 24.77 37.4081 24.794 37.5618 24.8505C37.7156 24.907 37.8559 24.9948 37.974 25.1083C38.0921 25.2219 38.1853 25.3587 38.2478 25.5101C38.3103 25.6615 38.3407 25.8243 38.337 25.988C38.3 27.6014 38.2373 30.5224 38.2003 33.4804ZM38.2003 40.2249C38.2292 43.2617 39.6785 43.9598 40.8205 44.0708C42.9116 44.2317 43.6483 42.5379 43.7593 40.5032C43.9201 38.3574 43.5791 36.2664 41.3465 36.1827C40.5696 36.1554 38.1456 36.6009 38.2003 40.2249Z" fill="#35355B"/>
<path d="M87.4091 34.4488C88.934 35.6664 89.8589 37.6192 90.0728 40.0062C90.2578 42.1165 89.6642 44.2767 88.4257 45.8868C87.351 47.2808 85.7774 48.2034 84.0361 48.4604C79.4245 49.1215 76.185 46.7329 75.5513 42.1181C74.9915 37.973 77.2257 33.4612 82.2523 33.0365C84.3658 32.8516 86.0998 33.3759 87.4091 34.4488ZM79.7703 41.1868C80.0679 43.8473 81.6668 44.9732 83.1611 44.7947C84.8805 44.621 86.0676 43.072 85.7717 40.4131C85.5609 38.6132 84.4849 36.8165 82.6206 36.95C81.8437 36.9999 79.3538 37.5886 79.7736 41.1868H79.7703Z" fill="#35355B"/>
<path d="M105.329 40.9214C105.283 43.2344 104.451 45.7469 102.889 47.1157C101.726 48.1516 100.126 48.7049 98.0092 48.5778C97.0617 48.5296 95.82 47.9747 95.1139 47.291L95.9294 54.5196C95.9573 54.7666 95.9316 55.0166 95.8541 55.2527C95.7766 55.4888 95.649 55.7054 95.4801 55.8877C95.3113 56.07 95.105 56.2138 94.8755 56.3091C94.6461 56.4045 94.3987 56.4492 94.1504 56.4402L92.4807 56.3807C92.0317 56.364 91.6068 56.1731 91.2961 55.8485C90.9853 55.524 90.8131 55.0912 90.8159 54.6419C90.8417 50.4598 90.7998 47.6883 90.7387 45.808C90.6663 42.546 90.3044 38.4395 92.3118 35.6648C93.4587 34.0997 95.405 33.0236 98.2199 33.0269C103.205 33.0446 105.384 36.9355 105.329 40.9214ZM95.738 38.2722C95.3616 38.9622 95.2554 39.7954 95.2168 40.6029C95.1954 41.3314 95.2937 42.0585 95.5079 42.7551C95.9277 43.9904 96.8028 44.8735 98.1121 44.8992C100.144 45.0601 100.884 42.977 100.924 41.0259C100.912 40.1895 100.821 39.2405 100.441 38.4797C99.9844 37.6063 99.1898 36.9484 98.0188 36.9259C97.5517 36.9193 97.0917 37.0414 96.6894 37.2789C96.2871 37.5164 95.9579 37.86 95.738 38.2722Z" fill="#35355B"/>
<path d="M70.0582 55.6823C69.4829 55.8724 68.9495 56.1711 68.4867 56.5622C68.0232 56.9432 67.6829 57.453 67.5088 58.0273C67.3348 58.6016 67.3348 59.2145 67.5088 59.7888C67.6758 60.3726 67.9537 60.9188 68.3275 61.3973C69.0885 62.392 70.1334 63.1324 71.3241 63.5205C71.8429 63.6876 72.392 63.7387 72.9326 63.6701C73.4157 63.6028 73.8757 63.4208 74.2741 63.1393C75.0333 62.6069 75.6172 61.7255 75.9614 60.5883C76.3056 59.451 76.3105 58.3927 75.9743 57.5321C75.7995 57.0766 75.5182 56.6696 75.154 56.345C74.7428 55.99 74.2592 55.7287 73.7369 55.5794C72.5286 55.2398 71.2456 55.2757 70.0582 55.6823Z" fill="#F99F6D"/>
</svg>
