<svg width="176" height="39" viewBox="0 0 176 39" fill="none" xmlns="http://www.w3.org/2000/svg">
<path d="M16.2042 10.2011C17.226 4.47829 14.3013 0.230469 9.32587 0.230469H0.275391V30.3244H11.7909C18.1501 30.3244 23.3065 25.1427 23.3065 18.747C23.3065 14.8177 20.1436 11.815 16.2042 10.2011ZM11.7909 26.8045H3.77888V3.75276H9.32587C11.7505 3.75276 13.8178 5.32594 14.5704 7.50971V7.51211C14.7657 8.08199 14.8729 8.69259 14.8729 9.32952C14.8729 9.98082 14.7609 10.6058 14.5561 11.1853C17.6142 12.3226 19.803 15.2846 19.803 18.7494C19.803 23.1912 16.209 26.8045 11.7909 26.8045Z" fill="#5D30DD"/>
<path d="M10.6248 14.1872C10.42 14.2279 10.2104 14.2615 10.0032 14.2806C9.16244 14.3644 8.32885 14.2639 7.5405 14.0077C6.23771 15.145 5.51367 17.494 5.51367 19.151C7.46191 19.5772 9.76025 18.6506 11.4703 17.3432C13.1804 16.0382 13.9663 13.9358 14.083 11.934C14.083 11.934 14.0783 11.934 14.0759 11.934C13.1851 13.2079 12.1491 13.876 10.6248 14.1872Z" fill="#35D8D0"/>
<path d="M10.0178 13.0959C11.5231 12.9043 12.7854 12.0519 13.5594 10.8666C12.5163 9.916 11.0825 9.40598 9.57723 9.59754C8.07199 9.78909 6.80969 10.6415 6.03563 11.8268C7.07882 12.7774 8.51261 13.2874 10.0178 13.0959Z" fill="#35D8D0"/>
<path d="M36.5207 9.87012C33.5197 9.87012 31.0428 10.8974 29.1636 12.9231C27.394 14.865 26.4961 17.3625 26.4961 20.3484C26.4961 23.3104 27.4345 25.8078 29.2851 27.7761C31.1904 29.7994 33.6912 30.8243 36.7184 30.8243C39.1001 30.8243 41.0793 30.2496 42.6012 29.1122C44.116 27.9796 45.2401 26.4735 45.9356 24.6417L46.0285 24.3999H42.4083L42.3583 24.4956C41.2317 26.6555 39.3478 27.7522 36.7589 27.7522C34.8559 27.7522 33.2673 27.1511 32.0383 25.9659C30.8761 24.8476 30.1687 23.4205 29.9329 21.7228H46.5453V20.3484C46.5453 17.3625 45.6474 14.865 43.8778 12.9231C41.9962 10.895 39.5216 9.87012 36.5207 9.87012ZM36.5207 12.9399C38.2927 12.9399 39.8003 13.5026 41.0054 14.6088C42.0891 15.6241 42.7798 16.9554 43.0609 18.5717H29.9805C30.2616 16.9578 30.9523 15.6241 32.0359 14.6112C33.2387 13.5026 34.7487 12.9399 36.5207 12.9399Z" fill="#5D30DD"/>
<path d="M57.8432 10.5238C56.0141 11.3739 54.7137 12.6429 53.9658 14.2999V10.1886H50.6338V30.5034H53.9658V21.5432C53.9658 19.3068 54.5946 17.3553 55.8331 15.7462C57.1406 14.07 58.8578 13.22 60.9347 13.22H61.4706V9.87012H61.0943C59.8296 9.87012 58.7364 10.0904 57.8432 10.5238Z" fill="#5D30DD"/>
<path d="M72.3373 10.5238C70.5082 11.3739 69.2078 12.6429 68.4599 14.2999V10.1886H65.1279V30.5034H68.4599V21.5432C68.4599 19.3068 69.0887 17.3553 70.3272 15.7462C71.6347 14.07 73.352 13.22 75.4288 13.22H75.9623V9.87012H75.586C74.3237 9.87012 73.2281 10.0904 72.3373 10.5238Z" fill="#5D30DD"/>
<path d="M87.062 26.2493L80.7886 10.1895H77.1064L85.2781 30.0445L81.5841 38.4085H85.1923L97.0937 10.1895H93.4497L87.062 26.2493Z" fill="#5D30DD"/>
<path d="M112.299 19.8432C111.313 19.4289 110.224 19.1033 109.067 18.8758C107.928 18.6531 106.859 18.4065 105.882 18.1407C104.923 17.8797 104.118 17.5445 103.489 17.1446C102.889 16.7638 102.598 16.2179 102.598 15.478C102.598 13.6654 104.039 12.7818 107.007 12.7818C109.986 12.7818 111.558 13.7492 111.813 15.7414L111.832 15.897H115.204L115.181 15.6983C114.992 14.0365 114.29 12.6812 113.094 11.6684C111.663 10.4759 109.688 9.87012 107.223 9.87012C104.627 9.87012 102.636 10.3873 101.3 11.4026C99.9496 12.4322 99.2637 13.8953 99.2637 15.7558C99.2637 17.0225 99.6066 18.0305 100.285 18.7537C100.948 19.46 101.791 20.0251 102.789 20.4322C103.775 20.8345 104.861 21.1529 106.018 21.3804C107.166 21.6079 108.238 21.8593 109.2 22.1347C110.158 22.4077 110.96 22.762 111.591 23.1883C112.194 23.5953 112.487 24.1676 112.487 24.9362C112.487 26.0904 111.901 26.8853 110.696 27.3642C110.155 27.5702 109.593 27.7162 109.029 27.7929C108.459 27.8719 107.833 27.9102 107.166 27.9102C106.511 27.9102 105.84 27.8048 105.177 27.6013C103.353 26.9811 102.379 25.8174 102.2 24.0407L102.184 23.8803H98.7373L98.7468 24.0694C98.854 26.0018 99.6519 27.5893 101.112 28.7842C102.698 30.1371 104.861 30.8219 107.54 30.8219C110.053 30.8219 112.077 30.2927 113.556 29.2511C115.057 28.1975 115.816 26.6507 115.816 24.6561C115.816 23.3655 115.474 22.3334 114.797 21.5816C114.142 20.8488 113.299 20.2646 112.299 19.8432Z" fill="#5D30DD"/>
<path d="M135.56 13.0523C133.935 10.938 131.673 9.86768 128.829 9.86768C125.799 9.86768 123.337 10.8949 121.51 12.9206C119.74 14.9153 118.845 17.4127 118.845 20.3436C118.845 23.2768 119.74 25.7743 121.51 27.7689C123.337 29.7946 125.733 30.8218 128.629 30.8218C131.618 30.8218 133.947 29.7659 135.557 27.6803V30.5034H138.889V10.1885H135.557V13.0523H135.56ZM129.027 27.7521C126.971 27.7521 125.278 27.0194 123.999 25.5779C122.789 24.2083 122.177 22.4483 122.177 20.3483C122.177 18.2484 122.789 16.4884 123.999 15.1188C125.28 13.6749 126.971 12.9422 129.027 12.9422C131.106 12.9422 132.768 13.6725 133.973 15.114C135.131 16.486 135.719 18.246 135.719 20.346C135.719 22.4483 135.133 24.2083 133.973 25.5803C132.768 27.0218 131.106 27.7521 129.027 27.7521Z" fill="#5D30DD"/>
<path d="M147.849 3.56384C146.515 4.68446 145.839 6.38215 145.839 8.60902V10.187H142.426V13.1801H145.839V30.5018H149.171V13.1801H153.777V10.187H149.171V8.85087C149.171 7.52671 149.504 6.55695 150.164 5.9703C150.828 5.37886 151.85 5.07715 153.201 5.07715H153.777V1.8877H153.36C151.028 1.8877 149.173 2.4504 147.849 3.56384Z" fill="#5D30DD"/>
<path d="M175.893 20.346C175.893 17.3601 174.995 14.8626 173.225 12.9207C171.346 10.8974 168.871 9.87012 165.87 9.87012C162.869 9.87012 160.395 10.8974 158.513 12.9231C156.744 14.865 155.846 17.3625 155.846 20.3484C155.846 23.3104 156.784 25.8078 158.635 27.7761C160.54 29.7994 163.041 30.8243 166.068 30.8243C168.45 30.8243 170.429 30.2496 171.951 29.1122C173.466 27.9796 174.59 26.4735 175.285 24.6417L175.378 24.3999H171.758L171.708 24.4956C170.581 26.6555 168.697 27.7522 166.108 27.7522C164.206 27.7522 162.617 27.1511 161.388 25.9659C160.226 24.8452 159.518 23.4181 159.283 21.7228H175.895V20.346H175.893ZM165.868 12.9399C167.64 12.9399 169.148 13.5026 170.353 14.6088C171.436 15.6241 172.127 16.9554 172.408 18.5717H159.328C159.609 16.9554 160.299 15.6241 161.383 14.6112C162.588 13.5026 164.096 12.9399 165.868 12.9399Z" fill="#5D30DD"/>
</svg>
