<svg width="320" height="549" viewBox="0 0 320 549" fill="none" xmlns="http://www.w3.org/2000/svg">
<rect width="319.17" height="548.87" fill="url(#paint0_linear_1_2)"/>
<path d="M156.62 271.247C156.073 271.356 155.514 271.445 154.961 271.496C152.717 271.72 150.492 271.451 148.388 270.768C144.912 273.803 142.979 280.072 142.979 284.494C148.179 285.631 154.312 283.158 158.876 279.669C163.44 276.187 165.537 270.576 165.849 265.234C165.849 265.234 165.836 265.234 165.829 265.234C163.452 268.633 160.687 270.416 156.62 271.247Z" fill="#35D8D0"/>
<path d="M155 268.334C159.017 267.823 162.385 265.548 164.451 262.385C161.667 259.848 157.841 258.487 153.824 258.998C149.807 259.509 146.438 261.784 144.372 264.948C147.156 267.484 150.983 268.846 155 268.334Z" fill="#35D8D0"/>
<path d="M171.51 260.609C174.236 245.336 166.431 234 153.153 234H129V314.312H159.732C176.702 314.312 190.463 300.484 190.463 283.416C190.463 272.929 182.023 264.916 171.51 260.609ZM159.732 304.919H138.35V243.4H153.153C159.624 243.4 165.141 247.598 167.149 253.426V253.433C167.67 254.954 167.956 256.583 167.956 258.283C167.956 260.021 167.658 261.689 167.111 263.235C175.272 266.271 181.114 274.175 181.114 283.422C181.114 295.276 171.522 304.919 159.732 304.919Z" fill="white"/>
<defs>
<linearGradient id="paint0_linear_1_2" x1="335.718" y1="394.471" x2="134.073" y2="386.114" gradientUnits="userSpaceOnUse">
<stop stop-color="#9373EE"/>
<stop offset="1" stop-color="#7F14FC"/>
</linearGradient>
</defs>
</svg>
