<?xml version="1.0" encoding="UTF-8"?> <svg xmlns="http://www.w3.org/2000/svg" width="499" height="181" viewBox="0 0 499 181" fill="none"><g clip-path="url(#clip0)"><path d="M0 119.052C0 104.122 11.9901 93 27.621 93C35.1248 93 41.8561 95.7822 46.5719 100.498C48.2739 102.122 48.2739 104.14 46.5719 105.596L42.6396 108.925C40.9377 110.382 39.3123 110.316 37.5374 108.848C34.7682 106.508 31.2621 105.219 27.6356 105.207C19.8985 105.207 13.8633 111.004 13.8633 119.045C13.8633 127.086 19.8985 132.883 27.6356 132.883C31.2645 132.884 34.7752 131.593 37.5374 129.242C39.3159 127.785 40.9413 127.697 42.6396 129.165L46.5865 132.49C48.2884 133.947 48.2884 135.968 46.5865 137.588C41.8488 142.304 35.1358 145.086 27.4752 145.086C11.9901 145.104 0 133.972 0 119.052Z" fill="#00347E"></path><path d="M54.699 140.545V97.5738C54.699 95.2577 56.0146 93.9321 58.3434 93.9321H88.5155C90.837 93.9321 92.1599 95.1666 92.1599 97.5738V101.365C92.1599 103.684 90.8442 105.006 88.5155 105.006H68.3145V113.823H83.016C85.3375 113.823 86.6605 115.134 86.6605 117.464V120.636C86.6605 122.956 85.3448 124.278 83.016 124.278H68.3145V133.167H88.7414C91.0593 133.167 92.3858 134.482 92.3858 136.809V140.596C92.3858 142.992 91.0702 144.238 88.7414 144.238H58.3361C56.0146 144.179 54.699 142.865 54.699 140.545Z" fill="#00347E"></path><path d="M100.345 140.545V97.5738C100.345 95.2577 101.661 93.9321 103.99 93.9321H110.331C112.652 93.9321 113.975 95.2468 113.975 97.5738V133.138H130.532C132.93 133.138 134.176 134.453 134.176 136.78V140.567C134.176 142.963 132.937 144.208 130.532 144.208H103.982C101.679 144.179 100.345 142.941 100.345 140.545Z" fill="#00347E"></path><path d="M152.18 135.906L150.244 140.545C149.319 142.941 148.932 144.187 146.534 144.187H138.717C136.319 144.187 135.073 142.872 136.166 140.545L156.899 96.9438C157.992 94.7006 159.607 93.4624 161.928 93.4624H162.781C165.099 93.4624 166.648 94.7006 167.73 96.9438L188.463 140.545C189.557 142.865 188.31 144.187 185.912 144.187H177.632C175.234 144.187 174.771 142.949 173.842 140.545L171.987 135.906L168.426 126.783L162.315 111.321L155.893 126.783L152.18 135.906Z" fill="#00347E"></path><path d="M187.756 119.052C187.756 104.209 199.419 93.0002 214.525 93.0002C220.851 92.9311 227.005 95.0631 231.93 99.0307C233.789 100.487 233.712 102.585 231.93 104.209L228.286 107.534C226.584 109.082 225.035 108.772 223.1 107.534C220.702 106.077 217.998 105.061 214.977 105.061C207.396 105.061 201.361 111.092 201.361 119.129C201.361 127.712 207.473 133.51 215.286 133.51C218.77 133.51 221.012 132.661 223.41 131.652V125.097H217.386C215.144 125.097 213.829 123.783 213.829 121.54V118.834C213.829 116.594 215.144 115.28 217.386 115.28H231.785C234.03 115.28 235.345 116.594 235.345 118.921V135.833C235.345 138.153 233.949 139.475 231.861 140.549C228.457 142.483 223.115 145.108 214.532 145.108C199.284 145.105 187.756 133.896 187.756 119.052Z" fill="#00347E"></path><path d="M244.001 140.545V97.5738C244.001 95.2577 245.316 93.9321 247.645 93.9321H277.817C280.139 93.9321 281.461 95.1666 281.461 97.5738V101.365C281.461 103.684 280.146 105.006 277.817 105.006H257.616V113.823H272.318C274.639 113.823 275.962 115.134 275.962 117.464V120.636C275.962 122.956 274.65 124.278 272.318 124.278H257.616V133.167H278.025C280.343 133.167 281.669 134.482 281.669 136.809V140.596C281.669 142.992 280.354 144.238 278.025 144.238H247.638C245.316 144.179 244.001 142.865 244.001 140.545Z" fill="#00347E"></path><path d="M344.189 144.179H338.62C336.299 144.179 335.293 143.018 334.976 140.698L332.37 118.666L323.165 141.008C322.159 143.327 320.533 144.565 318.212 144.565H317.428C315.107 144.565 313.485 143.327 312.479 141.008L303.27 118.59L300.638 140.698C300.409 143.018 299.403 144.179 297.081 144.179H290.576C288.178 144.179 286.932 143.018 287.249 140.698L294.133 97.0202C294.443 94.777 295.912 93.5425 298.233 93.5425H299.009C301.331 93.5425 302.654 94.777 303.649 97.0202L317.793 127.402L331.179 97.0202C332.184 94.777 333.577 93.5425 335.822 93.5425H336.671C338.916 93.5425 340.384 94.777 340.771 97.0202L347.425 140.698C347.826 143.018 346.583 144.179 344.189 144.179Z" fill="#00347E"></path><path d="M499 53.0039C499 53.0039 465.563 141.965 371.471 79.6934C298.583 31.46 246.256 54.3112 217.447 77.9054C217.447 77.9054 249.114 49.7155 284.57 46.9879C362.819 40.9756 381.118 82.7961 423.01 92.0968C443.324 96.6088 478.686 90.5928 499 53.0039Z" fill="#F6020E"></path><path d="M244.318 160.887C244.318 160.887 389.154 234.19 389.154 71.0482C385.389 5.63725 454.236 0 454.236 0C454.236 0 392.915 2.6329 397.051 84.2018C401.097 163.921 344.397 209.758 244.318 160.887Z" fill="#F6020E"></path><path d="M440.025 79.7521C449.367 75.1992 453.913 65.3067 450.179 57.6567C446.445 50.0066 435.845 47.4958 426.503 52.0487C417.161 56.6016 412.615 66.4941 416.349 74.1441C420.083 81.7942 430.683 84.305 440.025 79.7521Z" fill="#F6020E"></path></g><defs><clipPath id="clip0"><rect width="499" height="181" fill="white"></rect></clipPath></defs></svg> 