<svg width="119" height="42" viewBox="0 0 119 42" fill="none" xmlns="http://www.w3.org/2000/svg">
<path d="M74.3486 11.7495C75.4114 11.7495 76.4606 11.7495 77.5438 11.7495C77.5506 11.8798 77.5643 12.017 77.5643 12.1473C77.5643 14.0677 77.5643 15.9882 77.5643 17.9017C77.5643 18.0252 77.5711 18.1486 77.5779 18.3269C77.6801 18.2378 77.7346 18.1966 77.7823 18.1418C78.6816 17.1061 79.8397 16.6123 81.1887 16.5163C82.3128 16.434 83.396 16.5849 84.3907 17.1335C86.0326 18.0457 87.1567 19.4106 87.6472 21.2419C88.1514 23.1074 88.0151 24.9524 87.0818 26.6671C86.2983 28.1074 85.1674 29.1842 83.58 29.7054C82.3809 30.1032 81.1614 30.1032 79.9487 29.7534C79.1244 29.5134 78.4295 29.0676 77.8504 28.4297C77.7823 28.3543 77.7073 28.2788 77.5915 28.1554C77.5302 28.6766 77.5983 29.143 77.5438 29.6163C76.4674 29.6163 75.4182 29.6163 74.3418 29.6163C74.3486 23.663 74.3486 17.7234 74.3486 11.7495ZM81.2432 26.8934C82.2924 26.8797 83.2734 26.4476 83.9888 25.4805C84.5338 24.7466 84.7109 23.903 84.6632 23.0114C84.6223 22.2158 84.3839 21.4888 83.8525 20.8715C83.0213 19.8976 81.9653 19.5204 80.705 19.6369C79.2675 19.7673 78.1093 20.7206 77.7141 22.1129C77.5711 22.6205 77.537 23.1349 77.5847 23.663C77.7686 25.5834 79.1857 26.8934 81.2432 26.8934Z" fill="white"/>
<path d="M90.3315 11.7495C91.3738 11.7495 92.4162 11.7495 93.4994 11.7495C93.5403 12.0993 93.5131 12.4628 93.5199 12.8195C93.5267 13.183 93.5199 13.5465 93.5199 13.91C93.5199 14.2803 93.5199 14.6576 93.5199 15.0279C93.5199 15.3915 93.5199 15.755 93.5199 16.1185C93.5199 16.482 93.5199 16.8455 93.5199 17.209C93.5199 17.5656 93.5199 17.9223 93.5199 18.3544C93.6357 18.2515 93.697 18.2035 93.7515 18.1418C94.644 17.1267 95.7749 16.6397 97.1034 16.5368C98.2343 16.4477 99.3312 16.5917 100.333 17.1473C102.199 18.1966 103.364 19.7741 103.753 21.9003C104.018 23.3475 103.903 24.7741 103.31 26.1321C102.608 27.737 101.491 28.9647 99.849 29.6094C98.2684 30.2267 96.681 30.1924 95.1277 29.4585C94.6099 29.2185 94.1807 28.855 93.7992 28.4366C93.7311 28.3611 93.6629 28.2926 93.5403 28.1622C93.5403 28.6904 93.5403 29.143 93.5403 29.582C93.2882 29.6643 90.9105 29.6917 90.3519 29.63C90.2701 29.3899 90.2565 12.1267 90.3315 11.7495ZM100.612 23.1966C100.626 22.2638 100.319 21.3859 99.6105 20.6589C98.8884 19.9182 98.0163 19.5958 97.008 19.6095C96.1087 19.6164 95.3116 19.9044 94.6372 20.5217C93.295 21.7494 93.2814 23.855 93.9491 25.0896C94.569 26.235 95.5569 26.8111 96.8309 26.8865C97.7574 26.9414 98.6159 26.7219 99.3448 26.1046C100.224 25.3708 100.619 24.4037 100.612 23.1966Z" fill="white"/>
<path d="M57.3707 15.5765C56.3556 16.1664 55.3882 16.7356 54.4071 17.3049C54.3594 17.25 54.3186 17.2157 54.2913 17.1746C53.5146 15.9195 52.3769 15.165 50.9462 14.8907C49.6381 14.6369 48.3437 14.7329 47.1174 15.2885C45.6731 15.94 44.7193 17.0648 44.2424 18.5669C43.7928 19.9729 43.7723 21.4132 44.2492 22.8124C44.9918 24.9934 46.5383 26.228 48.8138 26.5298C49.9175 26.6738 50.9939 26.5709 52.0226 26.132C52.9492 25.741 53.6986 25.1375 54.2368 24.2801C54.2777 24.2184 54.3186 24.1567 54.3799 24.0607C55.3609 24.6368 56.3352 25.2061 57.3503 25.7959C57.2821 25.9194 57.2276 26.0291 57.1595 26.132C56.015 27.8398 54.4548 29.0057 52.4927 29.5887C49.9311 30.35 47.4172 30.1854 45.0804 28.848C42.5596 27.4077 41.0336 25.2061 40.5907 22.298C40.3182 20.4873 40.4272 18.6903 41.1562 16.9963C42.437 14.0196 44.6512 12.1541 47.8464 11.5436C49.8562 11.1596 51.8114 11.379 53.6782 12.2569C55.102 12.9291 56.2602 13.9167 57.1391 15.2267C57.2208 15.3228 57.2821 15.4325 57.3707 15.5765Z" fill="white"/>
<path d="M119 23.2789C119 27.0374 116.002 30.0621 112.167 30.0141C108.42 29.9661 105.504 26.9414 105.551 23.1349C105.599 19.4243 108.638 16.4477 112.344 16.482C115.914 16.5163 119.041 19.4586 119 23.2789ZM115.743 23.2652C115.743 22.4216 115.553 21.7494 115.123 21.1527C114.36 20.0896 113.311 19.6232 112.017 19.6987C110.804 19.7673 109.878 20.3297 109.264 21.3859C108.856 22.0924 108.747 22.8605 108.822 23.6698C109.087 26.5093 112.044 27.5313 114.061 26.331C115.212 25.6588 115.737 24.5958 115.743 23.2652Z" fill="white"/>
<path d="M62.6648 16.8796C62.6648 17.0442 62.6648 17.1676 62.6648 17.2979C62.6648 19.5819 62.658 21.8589 62.6716 24.1429C62.6716 24.4721 62.6921 24.8082 62.7602 25.1237C62.9986 26.2142 63.7957 26.8932 64.9198 26.9549C65.2945 26.9755 65.6897 26.948 66.0508 26.8657C67.0591 26.6326 67.6586 25.9467 67.8902 24.959C67.9924 24.5407 68.0265 24.0949 68.0265 23.6628C68.0401 21.5434 68.0333 19.4173 68.0333 17.2979C68.0333 17.1676 68.0333 17.0442 68.0333 16.9207C68.2718 16.8453 70.7312 16.8247 71.2081 16.8864C71.2762 17.1128 71.2966 29.184 71.2285 29.5955C70.9969 29.6572 68.4148 29.6709 68.0333 29.6023C68.0333 29.1771 68.0333 28.7519 68.0333 28.2375C67.9243 28.3541 67.863 28.4089 67.8153 28.4707C67.1136 29.376 66.1734 29.8081 65.0629 29.959C64.2658 30.0619 63.4687 30.0482 62.7057 29.8012C61.0774 29.28 60.0759 28.1483 59.6331 26.5091C59.49 25.9741 59.4287 25.4186 59.4287 24.863C59.4287 22.3047 59.4287 19.7465 59.4287 17.1882C59.4287 17.0922 59.4423 17.003 59.4491 16.8864C60.5188 16.8796 61.5747 16.8796 62.6648 16.8796Z" fill="white"/>
<path d="M16.8955 27.9496V41.4817L33.2735 34.2458V20.7686L16.8955 27.9496Z" fill="white"/>
<path d="M16.0715 0.0561523L0 7.23715V20.7692L16.0715 13.5334V0.0561523Z" fill="white"/>
<path d="M16.8955 0.048584V13.5464L26.8627 17.6959V4.25979L16.8955 0.048584Z" fill="white"/>
<path d="M16.0715 27.9427L0 20.7686V34.2458L16.0715 41.4817V27.9427Z" fill="white"/>
</svg>
