<svg xmlns="http://www.w3.org/2000/svg" width="80" height="80" viewBox="0 0 80 80">
    <path fill="#2B3492" fill-rule="nonzero" d="M51.435 35.153c-1.07 0-1.95-.88-1.95-1.927 0-1.103.895-1.989 1.978-1.974.962.014 1.773.756 1.904 1.71a1.936 1.936 0 0 1-1.932 2.19zm-2.001 2.462h4.034v11.203h-4.034V37.615zm-15.447 4.263v6.94h-4.065V36.726c0-3.363 2.123-5.545 5.429-5.545.85 0 1.667.151 2.001.303v3.394c-.211-.06-.606-.151-1.273-.151-.909 0-2.092.394-2.092 2.06v1.636h3.366v3.455h-3.366zm26.755 6.94c-2.911 0-4.73-1.727-4.73-4.605v-5.045V31.276c0-.013.023-.024.023-.024h3.955c.013 0 .024.011.024.024v5.06c0 .013.01.024.023.024h2.968s.011.01.011.023v3.528c0 .012-.023.023-.023.023h-2.956a.024.024 0 0 0-.023.024v3.557c0 1.302.605 1.727 1.758 1.727.465 0 .985-.056 1.215-.114a.024.024 0 0 1 .03.024v3.287c0 .01-.006.017-.014.022-.369.15-1.093.357-2.26.357zm-37.39-11.053h4.034v11.053h-4.034V37.765zm2.016-2.612c-1.07 0-1.95-.88-1.95-1.927 0-1.103.895-1.989 1.978-1.974.962.014 1.773.756 1.904 1.71a1.936 1.936 0 0 1-1.932 2.19zm19.254 13.665c-2.912 0-4.73-1.727-4.732-4.605v-5.045V31.276c0-.013.023-.024.023-.024h3.97s.01.011.01.024v5.06c0 .013.012.024.024.024h2.956c.012 0 .023.01.023.023v3.528a.024.024 0 0 1-.023.023h-2.956a.024.024 0 0 0-.023.024v3.557c0 1.302.605 1.727 1.758 1.727.465 0 .985-.056 1.215-.114a.024.024 0 0 1 .03.024v3.287c0 .01-.006.017-.015.022-.368.15-1.092.357-2.26.357zM16.78 31.225h4.034v17.593H16.78V31.225zm62.857 3.827a39.44 39.44 0 0 1-9.062 30.9C62.965 74.88 51.823 80 40.005 80 18.32 80 0 61.894 0 40.463c0-10.831 4.186-21.01 11.788-28.661C19.505 4.035 29.74-.12 40.574.002c19.57.28 36.364 15.347 39.063 35.05zm-12.013 28.31c6.545-7.68 9.514-17.798 8.15-27.764C73.34 17.815 58.182 4.216 40.52 3.966l-.523-.002c-9.594 0-18.636 3.783-25.463 10.654C7.678 21.519 3.902 30.697 3.902 40.463c0 19.284 16.532 35.575 36.102 35.575 10.686 0 20.753-4.62 27.62-12.677z"/>
</svg>
